<?xml version="1.0" encoding="UTF-8"?>
<svg version="1.1" xmlns="http://www.w3.org/2000/svg" width="997" height="592">
<path d="M0 0 C329.01 0 658.02 0 997 0 C997 195.36 997 390.72 997 592 C667.99 592 338.98 592 0 592 C0 396.64 0 201.28 0 0 Z " fill="#FC971F" transform="translate(0,0)"/>
<path d="M0 0 C1.08103611 -0.00751056 2.16207221 -0.01502111 3.27586699 -0.02275926 C5.06764773 -0.01222401 5.06764773 -0.01222401 6.89562607 -0.00147593 C8.16446908 -0.00583625 9.43331208 -0.01019657 10.74060488 -0.01468903 C14.285297 -0.02643611 17.82974598 -0.01934772 21.37443441 -0.00935517 C25.22212606 -0.00177895 29.06977898 -0.01151128 32.91746521 -0.01908517 C39.66854472 -0.02994909 46.41955234 -0.02957392 53.17063522 -0.02194369 C63.20947264 -0.01062821 73.24824905 -0.01638075 83.28708601 -0.02556861 C101.21310245 -0.04139343 119.13908688 -0.0399857 137.06510639 -0.03133187 C152.75212632 -0.02379578 168.43913449 -0.02181016 184.12615585 -0.0253998 C185.16527434 -0.02562896 186.20439284 -0.02585811 187.27499977 -0.02609421 C191.49274259 -0.02702818 195.71048541 -0.02798337 199.92822821 -0.02897351 C239.52267256 -0.03815786 279.11709647 -0.02981847 318.71153766 -0.01368281 C353.91628299 0.00055481 389.12099577 -0.00071904 424.32574081 -0.01506579 C463.8461202 -0.03111729 503.36648152 -0.0375066 542.88686371 -0.028229 C547.09708023 -0.02726679 551.30729675 -0.02632828 555.51751328 -0.0253998 C556.55423437 -0.02516257 557.59095546 -0.02492534 558.65909234 -0.02468092 C574.33919918 -0.02126337 590.019293 -0.02526885 605.69939804 -0.03283846 C623.5220171 -0.04139929 641.34459903 -0.03930805 659.16721344 -0.02299623 C669.15132708 -0.01416078 679.13536042 -0.01365048 689.11947204 -0.02493476 C695.77833096 -0.03163302 702.43712515 -0.02752791 709.09597443 -0.01442045 C712.89673882 -0.00724516 716.69734301 -0.00492397 720.49810266 -0.0156384 C724.58155154 -0.02703303 728.66460267 -0.01550849 732.74804306 -0.00147593 C733.94256356 -0.00849943 735.13708405 -0.01552293 736.36780214 -0.02275926 C737.9893563 -0.01149343 737.9893563 -0.01149343 739.64366913 0 C740.57841371 0.00020328 741.5131583 0.00040655 742.47622848 0.00061599 C745.26935906 0.44767708 746.1623194 1.1196658 747.82183456 3.37604749 C748.19788206 5.85474861 748.19788206 5.85474861 748.19935799 8.87492597 C748.20718123 10.02508616 748.21500447 11.17524636 748.22306478 12.36025989 C748.21637262 13.629597 748.20968045 14.8989341 748.20278549 16.20673597 C748.2062403 17.56425021 748.21100367 18.92176165 748.21696723 20.27926719 C748.22953137 24.01789097 748.22328243 27.75628606 748.21400857 31.49491084 C748.20724047 35.52359902 748.21768815 39.55224698 748.22594833 43.58092725 C748.23931187 51.47637287 748.2363963 59.3717331 748.22771041 67.26718211 C748.22094455 73.68204319 748.22001238 80.09688028 748.22328186 86.5117439 C748.22374156 87.42356511 748.22420126 88.33538632 748.22467489 89.27483848 C748.22563403 91.12698969 748.22660667 92.97914089 748.22759266 94.83129209 C748.23615423 112.21273396 748.22630041 129.59412842 748.21019156 146.97556251 C748.19678769 161.90058516 748.19911556 176.82553782 748.21294785 191.75055921 C748.22899013 209.06836813 748.23533019 226.38613545 748.22611105 243.70395076 C748.22515537 245.54941753 748.22421226 247.3948843 748.22328186 249.24035108 C748.22281903 250.14843626 748.22235621 251.05652144 748.22187936 251.99212435 C748.21928541 258.40179119 748.22366917 264.81143172 748.23072052 271.22109449 C748.23912073 279.02874473 748.23688665 286.83630444 748.22087829 294.64394426 C748.21297556 298.63011197 748.20993784 302.61612857 748.21982574 306.60229528 C748.22873201 310.24777185 748.22390764 313.89295653 748.20789309 317.53840643 C748.20292752 319.48954955 748.21277813 321.44071277 748.22306478 323.39183509 C748.21524154 324.54199529 748.2074183 325.69215548 748.19935799 326.87716901 C748.19887093 327.87382754 748.19838387 328.87048607 748.19788206 329.89734638 C747.74505301 332.88214988 747.19674685 333.57038133 744.82183456 335.37604749 C742.47622848 335.75195166 742.47622848 335.75195166 739.64366913 335.75324565 C738.56263302 335.76101243 737.48159692 335.76877921 736.36780214 335.77678135 C735.17328165 335.7700437 733.97876115 335.76330605 732.74804306 335.75636423 C731.47920005 335.76102415 730.21035705 335.76568406 728.90306425 335.77048519 C725.3583753 335.78306656 721.81392509 335.77681298 718.26923472 335.76765152 C714.4215406 335.76097347 710.57388913 335.77159176 706.72620392 335.78004736 C699.97512662 335.79245483 693.22411878 335.79360919 686.47303391 335.78749692 C676.43419378 335.77843214 666.39541827 335.78641664 656.35658312 335.79778816 C638.43056945 335.8174913 620.50458464 335.81979555 602.57856274 335.81459296 C586.89154231 335.81004223 571.20453333 335.81062691 555.51751328 335.81643331 C553.41625237 335.81719016 551.31499147 335.81794614 549.21373057 335.81870126 C546.04763402 335.8198464 542.88153746 335.82099628 539.71544091 335.8221605 C510.26606164 335.83287122 480.8166862 335.83758484 451.36730576 335.82969034 C450.25633426 335.82939316 449.14536277 335.82909599 448.00072548 335.82878981 C438.97786078 335.82634068 429.95499612 335.82372919 420.93213147 335.82110568 C385.72737897 335.81100091 350.52267416 335.8193607 315.31792831 335.84260023 C275.79754741 335.86864618 236.27719523 335.88152797 196.75680542 335.87441248 C192.5465889 335.87369637 188.33637238 335.87302199 184.12615585 335.87237203 C182.57107422 335.87211732 182.57107422 335.87211732 180.98457679 335.87185746 C165.30446404 335.86955017 149.62437787 335.87755184 133.94427109 335.8906635 C116.12164466 335.90553983 98.29908072 335.90646489 80.47645569 335.88859259 C70.4923178 335.87899399 60.50832542 335.88053664 50.52419709 335.89782728 C43.86532203 335.90825938 37.20655864 335.904298 30.5476947 335.88834725 C26.74688509 335.87965374 22.94636212 335.8774394 19.14556646 335.89261656 C15.06201738 335.90876998 10.97916806 335.89436509 6.89562607 335.87661874 C5.70110557 335.88626925 4.50658507 335.89591977 3.27586699 335.90586272 C2.19483088 335.89610487 1.11379478 335.88634702 0 335.87629348 C-0.93474458 335.87624618 -1.86948917 335.87619889 -2.83255935 335.87615016 C-5.17816544 335.37604749 -5.17816544 335.37604749 -6.97829781 333.50706259 C-8.51696952 330.77431727 -8.55415355 328.90065392 -8.55568886 325.76973855 C-8.5635121 324.62107071 -8.57133534 323.47240286 -8.57939565 322.2889269 C-8.5693574 320.39512693 -8.5693574 320.39512693 -8.55911636 318.46306837 C-8.56257227 317.10881586 -8.56733639 315.75456617 -8.5732981 314.40032238 C-8.58584694 310.67535909 -8.57962021 306.95062574 -8.57033944 303.22566152 C-8.56356519 299.20994265 -8.57402205 295.19426394 -8.58227921 291.17855299 C-8.59563577 283.31064994 -8.59273036 275.44283263 -8.58404128 267.57492619 C-8.57727318 261.18249557 -8.57634423 254.79008902 -8.57961273 248.39765584 C-8.58007243 247.48874549 -8.58053213 246.57983513 -8.58100576 245.64338203 C-8.58196491 243.79710935 -8.58293755 241.95083668 -8.58392353 240.10456402 C-8.59248294 222.78272929 -8.58263442 205.46094215 -8.56652243 188.13911522 C-8.55311649 173.265839 -8.55544855 158.392633 -8.56927872 143.51935804 C-8.58532093 126.25904057 -8.59166129 108.99876482 -8.58244193 91.73844093 C-8.58148625 89.89916842 -8.58054314 88.0598959 -8.57961273 86.22062337 C-8.57914991 85.31559729 -8.57868708 84.41057121 -8.57821023 83.4781201 C-8.57561642 77.09048301 -8.57999968 70.70287231 -8.58705139 64.31523931 C-8.59545142 56.53506155 -8.59321781 48.75497462 -8.57720916 40.97480731 C-8.56930653 37.00280934 -8.56626858 33.03096301 -8.57615662 29.05896604 C-8.58506294 25.42648195 -8.58023842 21.79429079 -8.56422396 18.16183347 C-8.55925851 16.21769697 -8.56910888 14.27354031 -8.57939565 12.32942468 C-8.57157241 11.18336458 -8.56374917 10.03730448 -8.55568886 8.85651529 C-8.5552018 7.86343659 -8.55471474 6.8703579 -8.55421293 5.84718591 C-7.77039351 0.69643683 -4.77633504 0.0010387 0 0 Z " fill="#DEE0E4" transform="translate(128.17816543579102,134.62395250797272)"/>
<path d="M0 0 C20.49851124 17.90656132 34.69896477 42.90143766 36.77734375 70.3046875 C37.47214405 85.40167129 37.81611189 99.92614665 32.77734375 114.3046875 C32.34880715 115.62234668 31.92042614 116.94005646 31.4921875 118.2578125 C26.17404249 133.97681376 18.00065646 147.15326011 6.77734375 159.3046875 C6.17277344 159.97886719 5.56820312 160.65304687 4.9453125 161.34765625 C-13.00898714 180.437751 -39.11400744 191.7036677 -65.10691833 192.59515381 C-67.87939967 192.65690588 -70.65045516 192.67593497 -73.42358398 192.67529297 C-75.52345228 192.67966314 -77.62120377 192.7161393 -79.72070312 192.75390625 C-107.2689896 192.98102159 -131.81936044 179.75455822 -151.43359375 161.09375 C-165.02048621 147.50685754 -175.80695068 129.13739444 -180.34765625 110.4296875 C-180.60095703 109.44548828 -180.60095703 109.44548828 -180.859375 108.44140625 C-187.91459756 79.94275133 -182.61778995 50.12269609 -167.6953125 25.1875 C-151.45030088 -0.86422858 -126.12648121 -18.75194417 -96.22265625 -25.6953125 C-61.19098955 -32.93544168 -26.96136582 -22.86482078 0 0 Z " fill="#FDB31B" transform="translate(355.22265625,219.6953125)"/>
<path d="M0 0 C20.49851124 17.90656132 34.69896477 42.90143766 36.77734375 70.3046875 C37.47214405 85.40167129 37.81611189 99.92614665 32.77734375 114.3046875 C32.34880715 115.62234668 31.92042614 116.94005646 31.4921875 118.2578125 C24.37418789 139.29669818 11.46085478 157.73362089 -6.22265625 171.3046875 C-6.88265625 171.3046875 -7.54265625 171.3046875 -8.22265625 171.3046875 C-8.41859375 170.69882812 -8.61453125 170.09296875 -8.81640625 169.46875 C-12.7348345 158.49039499 -19.66951475 150.81265639 -29.22265625 144.3046875 C-29.79628906 143.90507812 -30.36992187 143.50546875 -30.9609375 143.09375 C-38.15760298 138.52498385 -46.86368699 137.09326951 -55.22265625 136.3046875 C-55.22265625 132.3446875 -55.22265625 128.3846875 -55.22265625 124.3046875 C-52.43828125 124.28341797 -52.43828125 124.28341797 -49.59765625 124.26171875 C-47.13929851 124.21480353 -44.68096594 124.16655623 -42.22265625 124.1171875 C-40.39154297 124.10848633 -40.39154297 124.10848633 -38.5234375 124.09960938 C-31.27792426 123.92336716 -25.61217658 123.49580971 -20.22265625 118.3046875 C-15.89742045 112.83123541 -16.66172662 105.60537063 -16.53515625 98.9296875 C-16.50099609 97.71667969 -16.46683594 96.50367188 -16.43164062 95.25390625 C-16.3494325 92.27092569 -16.28019099 89.28822908 -16.22265625 86.3046875 C-15.52978516 86.04276611 -14.83691406 85.78084473 -14.12304688 85.51098633 C-12.76469727 84.98541138 -12.76469727 84.98541138 -11.37890625 84.44921875 C-10.47978516 84.10479736 -9.58066406 83.76037598 -8.65429688 83.40551758 C-5.40351081 81.93385148 -3.95743079 80.41282521 -2.22265625 77.3046875 C-1.3883144 74.97629163 -0.79118205 72.72092215 -0.22265625 70.3046875 C1.23527259 70.25069014 2.69377087 70.21189573 4.15234375 70.1796875 C4.96445312 70.15648437 5.7765625 70.13328125 6.61328125 70.109375 C8.77734375 70.3046875 8.77734375 70.3046875 10.77734375 72.3046875 C13.38014943 71.98427353 13.38014943 71.98427353 15.77734375 71.3046875 C15.77734375 69.6546875 15.77734375 68.0046875 15.77734375 66.3046875 C13.38014943 65.62510147 13.38014943 65.62510147 10.77734375 65.3046875 C10.11734375 65.9646875 9.45734375 66.6246875 8.77734375 67.3046875 C6.61328125 67.5 6.61328125 67.5 4.15234375 67.4296875 C3.33507812 67.41164063 2.5178125 67.39359375 1.67578125 67.375 C1.04929687 67.35179687 0.4228125 67.32859375 -0.22265625 67.3046875 C-0.40828125 66.41716797 -0.40828125 66.41716797 -0.59765625 65.51171875 C-1.81954182 60.83036967 -2.92987603 57.97049409 -7.09765625 55.3046875 C-10.08367596 53.6184646 -12.84609429 52.86940866 -16.22265625 52.3046875 C-16.320625 51.49386719 -16.41859375 50.68304688 -16.51953125 49.84765625 C-18.12298775 37.97378443 -21.47032591 28.23659618 -28.22265625 18.3046875 C-28.63902344 17.68980469 -29.05539062 17.07492188 -29.484375 16.44140625 C-37.67556452 5.74120372 -49.67958446 0.75706825 -62.22265625 -2.6953125 C-62.32578125 -3.8090625 -62.42890625 -4.9228125 -62.53515625 -6.0703125 C-62.76203125 -7.2665625 -62.98890625 -8.4628125 -63.22265625 -9.6953125 C-66.85951162 -12.11988275 -69.58498404 -11.99299657 -73.78515625 -11.9453125 C-74.47029297 -11.95304688 -75.15542969 -11.96078125 -75.86132812 -11.96875 C-79.99772901 -12.06696552 -79.99772901 -12.06696552 -83.22265625 -9.6953125 C-83.34833984 -8.22578125 -83.34833984 -8.22578125 -83.4765625 -6.7265625 C-83.72277344 -5.72625 -83.96898437 -4.7259375 -84.22265625 -3.6953125 C-86.8125 -2.2265625 -86.8125 -2.2265625 -90.16015625 -1.1953125 C-105.03858533 3.93742068 -116.23610709 12.66701702 -123.53125 26.74609375 C-127.5018759 35.0999972 -129.81327071 43.05257435 -130.22265625 52.3046875 C-131.46015625 52.5934375 -132.69765625 52.8821875 -133.97265625 53.1796875 C-139.40365912 54.3806612 -139.40365912 54.3806612 -143.34765625 57.9921875 C-144.50354355 61.04703251 -145.37393265 64.15228557 -146.22265625 67.3046875 C-147.68058509 67.35868486 -149.13908337 67.39747927 -150.59765625 67.4296875 C-151.40976563 67.45289063 -152.221875 67.47609375 -153.05859375 67.5 C-155.22265625 67.3046875 -155.22265625 67.3046875 -157.22265625 65.3046875 C-159.82546193 65.62510147 -159.82546193 65.62510147 -162.22265625 66.3046875 C-162.55265625 68.2846875 -162.88265625 70.2646875 -163.22265625 72.3046875 C-160.30613451 72.47149859 -160.30613451 72.47149859 -157.22265625 72.3046875 C-156.23265625 71.3146875 -156.23265625 71.3146875 -155.22265625 70.3046875 C-153.05859375 70.109375 -153.05859375 70.109375 -150.59765625 70.1796875 C-149.78039062 70.19773437 -148.963125 70.21578125 -148.12109375 70.234375 C-147.49460938 70.25757813 -146.868125 70.28078125 -146.22265625 70.3046875 C-145.63484375 72.13 -145.63484375 72.13 -145.03515625 73.9921875 C-143.05996303 79.28121201 -139.8834747 82.1974752 -135.22265625 85.3046875 C-133.56716094 85.68968641 -131.90041295 86.03261885 -130.22265625 86.3046875 C-130.21331055 87.02011719 -130.20396484 87.73554688 -130.19433594 88.47265625 C-130.1402678 91.75066942 -130.05669154 95.02731111 -129.97265625 98.3046875 C-129.95847656 99.43003906 -129.94429687 100.55539062 -129.9296875 101.71484375 C-129.68721695 110.00733659 -128.69175265 115.68576302 -122.87109375 121.7578125 C-117.02550289 124.23624289 -111.1325229 123.98534594 -104.84765625 124.0546875 C-103.53925781 124.08433594 -102.23085937 124.11398437 -100.8828125 124.14453125 C-97.66308977 124.21503613 -94.44286988 124.26214835 -91.22265625 124.3046875 C-91.22265625 128.2646875 -91.22265625 132.2246875 -91.22265625 136.3046875 C-92.97578125 136.5521875 -94.72890625 136.7996875 -96.53515625 137.0546875 C-109.55006301 139.28494147 -121.35050977 144.53741689 -129.80859375 155.09765625 C-133.09635607 160.22910849 -135.63959799 165.79467269 -138.22265625 171.3046875 C-142.07960183 169.68844364 -144.93945421 167.10915943 -147.97265625 164.3046875 C-148.76772583 163.56992187 -148.76772583 163.56992187 -149.57885742 162.8203125 C-164.17027914 149.07261998 -175.61195941 129.94075848 -180.34765625 110.4296875 C-180.60095703 109.44548828 -180.60095703 109.44548828 -180.859375 108.44140625 C-187.91459756 79.94275133 -182.61778995 50.12269609 -167.6953125 25.1875 C-151.45030088 -0.86422858 -126.12648121 -18.75194417 -96.22265625 -25.6953125 C-61.19098955 -32.93544168 -26.96136582 -22.86482078 0 0 Z " fill="#364663" transform="translate(355.22265625,219.6953125)"/>
<path d="M0 0 C11.88 0 23.76 0 36 0 C36 3.96 36 7.92 36 12 C37.093125 11.938125 38.18625 11.87625 39.3125 11.8125 C52.58855232 11.88274366 63.24493593 18.69390301 72.6640625 27.50390625 C78.17113871 33.38855792 82.81656058 39.74522589 83 48 C62.04683818 61.69858548 43.044651 68.37645003 17.79907227 68.37060547 C15.69920397 68.37497564 13.60145248 68.4114518 11.50195312 68.44921875 C-9.80505198 68.62487932 -30.05340932 60.80409074 -47 48 C-45.69056071 37.20511023 -39.02958248 29.08858363 -30.97265625 22.1953125 C-21.44403391 15.15840612 -11.7866379 11.63733422 0 12 C0 8.04 0 4.08 0 0 Z " fill="#FDAC11" transform="translate(264,344)"/>
<path d="M0 0 C0.68642578 -0.020625 1.37285156 -0.04125 2.08007812 -0.0625 C11.13783893 -0.13105448 17.65013764 4.35587209 24.1875 10.25 C26.0625 12.6875 26.0625 12.6875 27.1875 15.25 C27.69667969 16.37921875 28.20585938 17.5084375 28.73046875 18.671875 C30.73486088 24.07355232 30.66432973 29.35968881 30.625 35.0625 C30.6549707 36.58713867 30.6549707 36.58713867 30.68554688 38.14257812 C30.67943186 47.73703682 28.29576334 56.95527173 22.046875 64.45703125 C15.66045076 70.61536891 9.20863342 72.7973874 0.5 72.8125 C-8.04047396 72.57454165 -13.66021029 71.49832052 -20.0625 65.5625 C-29.59845693 55.3534167 -30.3914919 43.71938471 -30.11328125 30.37109375 C-29.65820977 20.03179476 -26.12938392 13.84339217 -19.12890625 6.34375 C-13.05545384 0.85408644 -7.95661614 0.05877463 0 0 Z " fill="#0467FE" transform="translate(536.8125,206.75)"/>
<path d="M0 0 C120.12 0 240.24 0 364 0 C364 2.64 364 5.28 364 8 C243.88 8 123.76 8 0 8 C0 5.36 0 2.72 0 0 Z " fill="#A7AFBB" transform="translate(445,354)"/>
<path d="M0 0 C120.12 0 240.24 0 364 0 C364 2.64 364 5.28 364 8 C243.88 8 123.76 8 0 8 C0 5.36 0 2.72 0 0 Z " fill="#A6AEBB" transform="translate(445,320)"/>
<path d="M0 0 C3.691875 0.144375 7.38375 0.28875 11.1875 0.4375 C11.1875 14.2975 11.1875 28.1575 11.1875 42.4375 C13.4975 42.4375 15.8075 42.4375 18.1875 42.4375 C18.1875 48.0475 18.1875 53.6575 18.1875 59.4375 C15.8775 59.4375 13.5675 59.4375 11.1875 59.4375 C11.1875 63.0675 11.1875 66.6975 11.1875 70.4375 C3.9275 70.4375 -3.3325 70.4375 -10.8125 70.4375 C-10.8125 66.8075 -10.8125 63.1775 -10.8125 59.4375 C-20.3825 59.4375 -29.9525 59.4375 -39.8125 59.4375 C-41.01785714 39.61607143 -41.01785714 39.61607143 -36.1875 33.4375 C-34.91129608 32.02152137 -33.63353474 30.60677962 -32.33691406 29.20947266 C-29.08767667 25.43257243 -26.3787243 21.22806895 -23.5625 17.125 C-21.83529108 14.63963081 -20.10633828 12.15741611 -18.34643555 9.69506836 C-16.79597599 7.50734773 -16.79597599 7.50734773 -15.69458008 5.29125977 C-12.07956773 -1.26214063 -6.85791906 -0.37831187 0 0 Z " fill="#0366FE" transform="translate(484.8125,207.5625)"/>
<path d="M0 0 C1.1461377 0.08193604 2.29227539 0.16387207 3.47314453 0.24829102 C7.14439453 0.43391602 10.81564453 0.61954102 14.59814453 0.81079102 C14.59814453 14.67079102 14.59814453 28.53079102 14.59814453 42.81079102 C16.90814453 42.81079102 19.21814453 42.81079102 21.59814453 42.81079102 C21.59814453 48.42079102 21.59814453 54.03079102 21.59814453 59.81079102 C19.28814453 59.81079102 16.97814453 59.81079102 14.59814453 59.81079102 C14.59814453 63.44079102 14.59814453 67.07079102 14.59814453 70.81079102 C7.33814453 70.81079102 0.07814453 70.81079102 -7.40185547 70.81079102 C-7.40185547 67.18079102 -7.40185547 63.55079102 -7.40185547 59.81079102 C-16.64185547 59.81079102 -25.88185547 59.81079102 -35.40185547 59.81079102 C-36.54916476 38.58556906 -36.54916476 38.58556906 -28.77636719 29.47924805 C-26.53655603 26.76044352 -24.52817515 23.87868385 -22.48266602 21.01245117 C-20.33239114 18.00077378 -18.15188108 15.01245754 -15.94042969 12.04541016 C-14.34045813 9.82017076 -14.34045813 9.82017076 -13.0859375 7.27734375 C-9.70892785 1.02341713 -7.08502252 -0.17330539 0 0 Z " fill="#0266FE" transform="translate(607.40185546875,207.189208984375)"/>
<path d="M0 0 C11.88 0 23.76 0 36 0 C36.0825 4.95 36.165 9.9 36.25 15 C36.28641602 16.54558594 36.32283203 18.09117187 36.36035156 19.68359375 C36.42004313 27.08534808 36.28666711 32.6951575 32 39 C28.07752319 42.72635297 24.24288449 45.27620711 18.75 45.375 C13.08185872 45.22583839 8.55377387 43.42703571 4.42578125 39.50390625 C1.04785585 35.62267965 -0.13157755 32.60505461 -0.09765625 27.55078125 C-0.09443359 26.70322266 -0.09121094 25.85566406 -0.08789062 24.98242188 C-0.07951172 24.10134766 -0.07113281 23.22027344 -0.0625 22.3125 C-0.05798828 21.41982422 -0.05347656 20.52714844 -0.04882812 19.60742188 C-0.03705004 17.40491927 -0.01911481 15.20245115 0 13 C-5.94 13.495 -5.94 13.495 -12 14 C-7.7975546 11.19836974 -4.99895065 11.85510288 0 12 C0 8.04 0 4.08 0 0 Z " fill="#FE9100" transform="translate(264,344)"/>
<path d="M0 0 C0.99 0 1.98 0 3 0 C6.52389236 10.71850594 9.78926088 21.5049484 12.83032227 32.37002563 C13.36831819 34.28867079 13.9136068 36.20526619 14.45898438 38.12182617 C14.95495117 39.91197144 14.95495117 39.91197144 15.4609375 41.73828125 C15.75790527 42.80087158 16.05487305 43.86346191 16.36083984 44.95825195 C17.01288114 48.06130104 17.11655828 50.83902229 17 54 C12.61313225 53.47952417 8.32974798 52.88099868 4 52 C3.96914307 52.79744629 3.93828613 53.59489258 3.90649414 54.41650391 C3.35910109 64.64468472 1.53672182 74.37142844 -0.5625 84.375 C-0.89600119 85.9972277 -1.22868835 87.61962297 -1.56054688 89.2421875 C-2.36435779 93.16344707 -3.17904119 97.08229627 -4 101 C-4.99 101 -5.98 101 -7 101 C-7.17539307 100.33806641 -7.35078613 99.67613281 -7.53149414 98.99414062 C-11.12529394 85.46180215 -14.79767363 71.96717999 -18.86547852 58.56835938 C-19.14576904 57.63056641 -19.42605957 56.69277344 -19.71484375 55.7265625 C-19.96355225 54.90752441 -20.21226074 54.08848633 -20.46850586 53.24462891 C-21 51 -21 51 -21 47 C-16.71 47.66 -12.42 48.32 -8 49 C-7.88527344 47.42863281 -7.77054687 45.85726562 -7.65234375 44.23828125 C-7.09332975 38.09698688 -5.90166383 32.19939775 -4.5625 26.1875 C-2.68043911 17.48221084 -1.04402291 8.85082112 0 0 Z " fill="#FFEDAD" transform="translate(472,12)"/>
<path d="M0 0 C51.48 0 102.96 0 156 0 C156 2.97 156 5.94 156 9 C104.52 9 53.04 9 0 9 C0 6.03 0 3.06 0 0 Z " fill="#A9B1BD" transform="translate(445,390)"/>
<path d="M0 0 C1.31871094 -0.00773438 2.63742187 -0.01546875 3.99609375 -0.0234375 C7.76663126 0.39780546 8.95045111 0.73392441 11.5625 3.375 C12.01660156 5.91870117 12.01660156 5.91870117 11.953125 8.91796875 C11.93378906 10.52768555 11.93378906 10.52768555 11.9140625 12.16992188 C11.88054687 13.28947266 11.84703125 14.40902344 11.8125 15.5625 C11.79445313 16.69365234 11.77640625 17.82480469 11.7578125 18.99023438 C11.71062652 21.78600376 11.64480595 24.58007972 11.5625 27.375 C10.9025 27.375 10.2425 27.375 9.5625 27.375 C9.315 28.138125 9.0675 28.90125 8.8125 29.6875 C7.37191891 32.78474934 6.61227392 33.85011304 3.5625 35.375 C0.84221675 35.61471845 -1.69626407 35.5120618 -4.4375 35.375 C-4.4375 34.715 -4.4375 34.055 -4.4375 33.375 C-5.0975 33.375 -5.7575 33.375 -6.4375 33.375 C-10.02913733 28.20304225 -10.56617427 23.82251049 -11 17.625 C-11.08378906 16.45453125 -11.16757812 15.2840625 -11.25390625 14.078125 C-11.31449219 13.18609375 -11.37507813 12.2940625 -11.4375 11.375 C-12.7575 11.045 -14.0775 10.715 -15.4375 10.375 C-13.7875 10.045 -12.1375 9.715 -10.4375 9.375 C-10.499375 8.446875 -10.56125 7.51875 -10.625 6.5625 C-10.4375 3.375 -10.4375 3.375 -9.390625 1.69921875 C-6.43130142 -0.30720263 -3.44794368 -0.0595043 0 0 Z " fill="#FB8B01" transform="translate(281.4375,206.625)"/>
<path d="M0 0 C3.59289931 0.03822233 6.7386153 0.69964024 10.20703125 1.67578125 C14.5463205 2.67130996 19.0048819 2.87786859 23.4375 3.1875 C23.4375 4.5075 23.4375 5.8275 23.4375 7.1875 C16.67155981 7.30131955 10.14912938 7.06771369 3.4375 6.1875 C4.18515625 6.64640625 4.9328125 7.1053125 5.703125 7.578125 C6.68796875 8.19171875 7.6728125 8.8053125 8.6875 9.4375 C9.66203125 10.04078125 10.6365625 10.6440625 11.640625 11.265625 C14.25524826 13.06226557 16.37620801 14.78018778 18.4375 17.1875 C18.24734746 19.40594626 18.02227845 20.60272155 16.4375 22.1875 C12.49922037 22.42861916 9.04434081 22.18937651 5.25 21.1875 C1.44955796 20.01835821 1.44955796 20.01835821 -2.5625 20.1875 C-1.73105469 20.73019531 -0.89960938 21.27289063 -0.04296875 21.83203125 C1.04371094 22.54746094 2.13039063 23.26289062 3.25 24 C4.32894531 24.70769531 5.40789063 25.41539063 6.51953125 26.14453125 C11.02461048 29.2986898 11.02461048 29.2986898 12.4375 31.1875 C12.4375 32.5075 12.4375 33.8275 12.4375 35.1875 C9.57677609 36.61786196 7.35794466 36.08032295 4.1875 35.8125 C2.50914062 35.67714844 2.50914062 35.67714844 0.796875 35.5390625 C-2.35397025 35.20932288 -5.44473323 34.74491891 -8.5625 34.1875 C-7.31533203 35.00154297 -7.31533203 35.00154297 -6.04296875 35.83203125 C-4.95628906 36.54746094 -3.86960937 37.26289062 -2.75 38 C-1.67105469 38.70769531 -0.59210938 39.41539063 0.51953125 40.14453125 C5.02461048 43.2986898 5.02461048 43.2986898 6.4375 45.1875 C6.4375 46.5075 6.4375 47.8275 6.4375 49.1875 C2.4375 49.1875 2.4375 49.1875 0.07421875 46.94921875 C-0.79589844 46.03785156 -1.66601562 45.12648437 -2.5625 44.1875 C-4.59080654 42.74242923 -6.65450946 41.34579952 -8.75 40 C-14.38194444 36.36805556 -14.38194444 36.36805556 -16.5625 34.1875 C-16.6875 31.5625 -16.6875 31.5625 -16.5625 29.1875 C-11.13209697 28.12119199 -6.9899012 28.38775586 -1.625 29.625 C-0.94115234 29.77259766 -0.25730469 29.92019531 0.44726562 30.07226562 C2.11301872 30.43337294 3.77562923 30.80892712 5.4375 31.1875 C3.95636719 30.26517578 3.95636719 30.26517578 2.4453125 29.32421875 C1.15083731 28.50813656 -0.14342234 27.69171242 -1.4375 26.875 C-2.08847656 26.47087891 -2.73945313 26.06675781 -3.41015625 25.65039062 C-6.50551621 23.68786859 -8.504189 22.2749665 -10.5625 19.1875 C-10.1875 16.5 -10.1875 16.5 -9.5625 14.1875 C-4.03006872 13.9933796 0.09308013 14.57409023 5.4375 16.1875 C7.10372263 16.22596979 8.77145212 16.23291187 10.4375 16.1875 C9.52226563 15.63320312 8.60703125 15.07890625 7.6640625 14.5078125 C6.46345125 13.77619002 5.26293537 13.04441102 4.0625 12.3125 C3.15757812 11.76529297 3.15757812 11.76529297 2.234375 11.20703125 C-0.26761595 9.67803678 -2.48121354 8.26878646 -4.5625 6.1875 C-4.75 3.625 -4.75 3.625 -4.5625 1.1875 C-3.5625 0.1875 -3.5625 0.1875 0 0 Z " fill="#1869E9" transform="translate(509.5625,68.8125)"/>
<path d="M0 0 C3.20832587 1.81340158 4.60664969 3.25076132 6.3125 6.5 C7.94365716 14.80407281 7.88647399 23.32799939 4 31 C2.11465123 33.30431516 1.0064094 33.83814447 -1.89453125 34.3046875 C-5.520803 34.53343191 -7.39413967 34.4464234 -10.375 32.25 C-15.5052012 25.14664449 -14.67896949 16.77124067 -13.6875 8.34375 C-13.08030457 5.43788617 -12.25184901 3.30996801 -10.375 1 C-6.89531228 -0.46513167 -3.67161856 -0.6496502 0 0 Z " fill="#D8DDE5" transform="translate(541,226)"/>
<path d="M0 0 C4.93359313 0.42287941 6.62599138 2.54752606 10 6 C11.91767024 7.62781995 13.85522043 9.23252733 15.8125 10.8125 C16.78832031 11.60269531 17.76414062 12.39289063 18.76953125 13.20703125 C19.50558594 13.79871094 20.24164063 14.39039062 21 15 C20 18 20 18 18 19 C19.62147732 24.34759945 22.01408818 29.1350778 24.609375 34.05273438 C26.08497109 36.9140268 27 38.73064098 27 42 C22.58532217 40.55549145 19.45346326 38.13144137 16 35.125 C11.63024176 31.38264042 11.63024176 31.38264042 7.125 27.8046875 C6.42375 27.20914063 5.7225 26.61359375 5 26 C5 25.34 5 24.68 5 24 C6.65 23.67 8.3 23.34 10 23 C9.76812988 22.48091064 9.53625977 21.96182129 9.29736328 21.42700195 C8.23891621 19.05594299 7.18194605 16.68422843 6.125 14.3125 C5.76019531 13.49587891 5.39539063 12.67925781 5.01953125 11.83789062 C3.27384779 7.91803778 1.54903618 4.0030356 0 0 Z " fill="#FFDD78" transform="translate(416,77)"/>
<path d="M0 0 C2.125 1.875 2.125 1.875 3 4 C2.8125 6.1875 2.8125 6.1875 2 8 C-0.97359449 9.48679725 -3.66299179 9.11112605 -6.9765625 9.09765625 C-7.66181 9.0962413 -8.3470575 9.09482635 -9.05307007 9.09336853 C-11.24375761 9.08776675 -13.4343433 9.07521406 -15.625 9.0625 C-17.10937352 9.05748522 -18.59374865 9.05292228 -20.078125 9.04882812 C-23.71878315 9.03779677 -27.35938164 9.02053099 -31 9 C-31.33 6.69 -31.66 4.38 -32 2 C-22.37269805 -3.03245329 -10.32918366 -4.10400601 0 0 Z " fill="#FF8E02" transform="translate(297,315)"/>
<path d="M0 0 C2.0078125 0.1328125 2.0078125 0.1328125 5.0078125 1.1328125 C6.56899678 1.20022115 8.1328377 1.21795706 9.6953125 1.1953125 C10.50355469 1.18628906 11.31179688 1.17726563 12.14453125 1.16796875 C12.75941406 1.15636719 13.37429688 1.14476563 14.0078125 1.1328125 C14.5703125 3.0703125 14.5703125 3.0703125 15.0078125 5.1328125 C13.46545025 6.67517475 12.02324571 6.30217324 9.8828125 6.3203125 C5.57012887 6.28581103 2.07731671 5.51817563 -1.9921875 4.1328125 C-1.9921875 4.7928125 -1.9921875 5.4528125 -1.9921875 6.1328125 C-1.4559375 6.3390625 -0.9196875 6.5453125 -0.3671875 6.7578125 C2.97442833 8.69243219 5.6881093 11.03229417 8.0078125 14.1328125 C8.3828125 17.0078125 8.3828125 17.0078125 8.0078125 19.1328125 C3.35537236 21.45903257 -3.0659456 20.11806088 -7.9921875 19.1328125 C-7.2496875 19.7825 -7.2496875 19.7825 -6.4921875 20.4453125 C-4.9921875 22.1328125 -4.9921875 22.1328125 -4.9921875 25.1328125 C-8.46045972 24.84378981 -9.79872304 24.31609462 -12.3671875 21.8828125 C-13.9921875 19.1328125 -13.9921875 19.1328125 -13.7421875 16.3203125 C-13.4946875 15.5984375 -13.2471875 14.8765625 -12.9921875 14.1328125 C-11.61730463 14.10531484 -10.24225359 14.0861961 -8.8671875 14.0703125 C-7.71863281 14.05291016 -7.71863281 14.05291016 -6.546875 14.03515625 C-3.63199016 14.14658151 -0.85839585 14.60526401 2.0078125 15.1328125 C1.358125 14.54113281 0.7084375 13.94945313 0.0390625 13.33984375 C-0.79625 12.54964844 -1.6315625 11.75945312 -2.4921875 10.9453125 C-3.3275 10.16800781 -4.1628125 9.39070313 -5.0234375 8.58984375 C-6.9921875 6.1328125 -6.9921875 6.1328125 -7.3359375 3.39453125 C-6.65114864 -1.11106815 -4.03695388 0.01489651 0 0 Z " fill="#6C707A" transform="translate(553.9921875,98.8671875)"/>
<path d="M0 0 C1 1 1 1 1.375 3.4375 C0.83468509 8.57049169 -1.52595606 12.52904917 -4 17 C-3.34773438 16.566875 -2.69546875 16.13375 -2.0234375 15.6875 C6.6572935 10.15641476 6.6572935 10.15641476 12 11 C12.28855285 15.9053984 12.26204794 19.1554435 9 23 C7.68 23 6.36 23 5 23 C5.50603992 20.83125748 5.99983813 19.00032373 7 17 C4.28163459 18.00967858 1.93917632 19.03953539 -0.5 20.625 C-3.28546368 22.15700502 -4.87134719 22.34762809 -8 22 C-9 21 -9 21 -9.375 17.9375 C-8.89707785 12.91931746 -6.91177512 10.00369079 -4 6 C-4.66386719 6.3609375 -5.32773437 6.721875 -6.01171875 7.09375 C-7.33623047 7.78984375 -7.33623047 7.78984375 -8.6875 8.5 C-9.55761719 8.9640625 -10.42773438 9.428125 -11.32421875 9.90625 C-14.11788829 11.04818792 -16.01629113 11.21504208 -19 11 C-19.33 9.68 -19.66 8.36 -20 7 C-18.515 6.6596875 -18.515 6.6596875 -17 6.3125 C-13.88963197 5.44990806 -11.5507283 4.17068838 -8.875 2.375 C-5.79666501 0.34270117 -3.78615805 -0.68839237 0 0 Z " fill="#186AE9" transform="translate(395,98)"/>
<path d="M0 0 C0.33 0 0.66 0 1 0 C1 8.25 1 16.5 1 25 C-4.28 25 -9.56 25 -15 25 C-13.57087321 22.14174642 -12.13073351 19.48908157 -10.46875 16.77734375 C-9.98792969 15.99166016 -9.50710938 15.20597656 -9.01171875 14.39648438 C-8.51285156 13.58501953 -8.01398438 12.77355469 -7.5 11.9375 C-7.00113281 11.12216797 -6.50226563 10.30683594 -5.98828125 9.46679688 C-4.03381144 6.27833876 -2.07478976 3.11218465 0 0 Z " fill="#C4D2E8" transform="translate(475,226)"/>
<path d="M0 0 C0.33 0 0.66 0 1 0 C1 7.92 1 15.84 1 24 C-4.28 24 -9.56 24 -15 24 C-11.63090799 17.75727068 -7.993394 11.85844065 -4 6 C-3.22826256 4.81308736 -2.45730025 3.62566996 -1.6875 2.4375 C-1.130625 1.633125 -0.57375 0.82875 0 0 Z " fill="#C8D4E7" transform="translate(601,227)"/>
<path d="M0 0 C-0.2676756 3.30133235 -0.5603835 4.62503298 -3.125 6.8125 C-6.77982409 8.32210126 -9.0736304 8.55106942 -13 8 C-15.32261577 6.53308478 -17.01448166 4.93709106 -19 3 C-18.67 1.68 -18.34 0.36 -18 -1 C-11.96066243 -2.71183038 -5.67573523 -2.92941173 0 0 Z " fill="#FFD04F" transform="translate(318,259)"/>
<path d="M0 0 C0.845625 -0.01417969 1.69125 -0.02835937 2.5625 -0.04296875 C5.15408616 0.20206904 6.77024992 0.88165099 9 2.1875 C8.6858889 5.11920364 7.9610478 6.22999331 5.9375 8.4375 C2.16949602 10.68226833 -0.71432809 11.19640063 -5 10.1875 C-8.0625 7.9375 -8.0625 7.9375 -10 5.1875 C-9.8125 2.875 -9.8125 2.875 -9 1.1875 C-5.9473937 0.30422271 -3.17494823 0.0241993 0 0 Z " fill="#FFCA54" transform="translate(256,256.8125)"/>
<path d="M0 0 C0.99 0.33 1.98 0.66 3 1 C3.69258229 2.99117408 4.35747635 4.9921136 5 7 C6 9 6 9 8 10 C12.68249718 10.61409799 15.62332655 10.73301445 19.4375 7.8125 C21.99909564 5.00099259 22.78698668 3.72773314 23 0 C23.66 0 24.32 0 25 0 C26 3 26 3 24.875 5.9375 C22.75843757 9.39455197 21.57790798 11.06196651 18 13 C12.88153894 13.75543552 8.56589164 13.88081405 4 11.3125 C1.9397284 8.93031096 0.29519061 6.87820137 -1 4 C-0.6875 1.6875 -0.6875 1.6875 0 0 Z " fill="#FFAD08" transform="translate(243,256)"/>
<path d="M0 0 C4.55555556 0.55555556 4.55555556 0.55555556 6 2 C7.51469448 2.23192865 9.03754562 2.41215238 10.5625 2.5625 C11.38878906 2.64628906 12.21507812 2.73007812 13.06640625 2.81640625 C13.70449219 2.87699219 14.34257812 2.93757813 15 3 C15 3.99 15 4.98 15 6 C14.37351563 6.04898437 13.74703125 6.09796875 13.1015625 6.1484375 C12.28429687 6.22320312 11.46703125 6.29796875 10.625 6.375 C9.81289062 6.44460938 9.00078125 6.51421875 8.1640625 6.5859375 C5.79665809 6.82892588 5.79665809 6.82892588 4 9 C0.875 8.625 0.875 8.625 -2 8 C-2.125 5.125 -2.125 5.125 -2 2 C-1.34 1.34 -0.68 0.68 0 0 Z " fill="#DE850F" transform="translate(194,284)"/>
<path d="M0 0 C4.55555556 0.55555556 4.55555556 0.55555556 6 2 C6.1875 4.4375 6.1875 4.4375 6 7 C5.34 7.66 4.68 8.32 4 9 C-0.55555556 8.44444444 -0.55555556 8.44444444 -2 7 C-3.34747084 6.76924918 -4.70377565 6.58846937 -6.0625 6.4375 C-7.361875 6.293125 -8.66125 6.14875 -10 6 C-10.33 5.01 -10.66 4.02 -11 3 C-10.37351562 2.95101563 -9.74703125 2.90203125 -9.1015625 2.8515625 C-8.28429687 2.77679688 -7.46703125 2.70203125 -6.625 2.625 C-5.81289063 2.55539062 -5.00078125 2.48578125 -4.1640625 2.4140625 C-1.79665809 2.17107412 -1.79665809 2.17107412 0 0 Z " fill="#E3860D" transform="translate(366,284)"/>
<path d="M0 0 C2 2 2 2 2.25 4.5 C2 7 2 7 0 9 C-2.5 9.25 -2.5 9.25 -5 9 C-7 7 -7 7 -7.125 3.875 C-7.08375 2.92625 -7.0425 1.9775 -7 1 C-4.48718205 -0.25640898 -2.78302919 -0.20872719 0 0 Z " fill="#26354D" transform="translate(258,275)"/>
<path d="M0 0 C2.5 0.25 2.5 0.25 4.5 2.25 C4.75 4.75 4.75 4.75 4.5 7.25 C2.5 9.25 2.5 9.25 0 9.5 C-2.5 9.25 -2.5 9.25 -4.5 7.25 C-4.75 4.75 -4.75 4.75 -4.5 2.25 C-2.5 0.25 -2.5 0.25 0 0 Z " fill="#24344D" transform="translate(308.5,274.75)"/>
<path d="M0 0 C1 2 1 2 0.3984375 3.91015625 C-0.62370451 6.05977551 -1.63315677 8.04922058 -3 10 C-5.375 10.75 -5.375 10.75 -8 11 C-10.04049422 12.2704964 -12.05017465 13.59431196 -14 15 C-13.2633717 11.85963725 -12.43082365 8.89901957 -11 6 C-8.125 4.6875 -8.125 4.6875 -5 4 C-2.19195735 1.9884805 -2.19195735 1.9884805 0 0 Z " fill="#E49D0C" transform="translate(353,353)"/>
<path d="M0 0 C3.37641082 3.37641082 4.27450305 5.64517436 6 10 C5.01 10 4.02 10 3 10 C3 13.3 3 16.6 3 20 C-0.10551666 16.89448334 -0.81323934 15.10801767 -2 11 C-1.34 11 -0.68 11 0 11 C0 7.37 0 3.74 0 0 Z " fill="#EAB709" transform="translate(220,345)"/>
<path d="M0 0 C0.66 0 1.32 0 2 0 C2.4125 1.093125 2.825 2.18625 3.25 3.3125 C4.67115417 6.5543033 5.7138798 8.40134693 9 10 C11.68057932 10.51965165 14.26956462 10.77246372 17 11 C17 11.66 17 12.32 17 13 C8.01814754 13.78482206 8.01814754 13.78482206 4 10.6875 C1.09324663 6.78155016 -0.26380775 4.88044344 0 0 Z " fill="#FFAE06" transform="translate(296,256)"/>
<path d="M0 0 C1.32 0 2.64 0 4 0 C4.33 0.66 4.66 1.32 5 2 C6.32 1.67 7.64 1.34 9 1 C9 2.32 9 3.64 9 5 C8.01 5 7.02 5 6 5 C6 5.66 6 6.32 6 7 C4.68 7 3.36 7 2 7 C1.67 6.34 1.34 5.68 1 5 C0.67 5.66 0.34 6.32 0 7 C-0.66 7 -1.32 7 -2 7 C-1.125 2.25 -1.125 2.25 0 0 Z " fill="#54637C" transform="translate(209,371)"/>
<path d="M0 0 C1.99954746 -0.04254356 4.00041636 -0.04080783 6 0 C7 1 7 1 7.125 3.5 C7 6 7 6 6 7 C3.5625 7.1875 3.5625 7.1875 1 7 C0.34 6.34 -0.32 5.68 -1 5 C-0.625 2.375 -0.625 2.375 0 0 Z " fill="#FF8E02" transform="translate(251,388)"/>
<path d="M0 0 C0.66 0.33 1.32 0.66 2 1 C-4.6 7.6 -11.2 14.2 -18 21 C-18 16.81116298 -15.67400903 15.0691572 -12.9375 12.1875 C-12.43887451 11.65286133 -11.94024902 11.11822266 -11.42651367 10.56738281 C-7.83096005 6.75766304 -4.0942029 3.27536232 0 0 Z " fill="#4E5D77" transform="translate(214,215)"/>
<path d="M0 0 C2.4375 0.75 2.4375 0.75 5 2 C5.8125 4.125 5.8125 4.125 6 6 C5.01 6.33 4.02 6.66 3 7 C3 8.32 3 9.64 3 11 C2.01 11 1.02 11 0 11 C-2.21538462 4.6 -2.21538462 4.6 -1.125 1.5625 C-0.75375 1.046875 -0.3825 0.53125 0 0 Z " fill="#54627C" transform="translate(332,352)"/>
<path d="M0 0 C3.53571429 0.53571429 3.53571429 0.53571429 5 2 C5.125 4.5 5.125 4.5 5 7 C4 8 4 8 1.5 8.125 C-1 8 -1 8 -2 7 C-2.1875 4.5625 -2.1875 4.5625 -2 2 C-1.34 1.34 -0.68 0.68 0 0 Z " fill="#FF8D02" transform="translate(240,387)"/>
<path d="M0 0 C2.96175123 0.61277612 4.38058783 1.25372522 7 3 C7 3.66 7 4.32 7 5 C6.01 5 5.02 5 4 5 C3.67 5.99 3.34 6.98 3 8 C0.69 7.67 -1.62 7.34 -4 7 C-4 5.68 -4 4.36 -4 3 C-2.68 3.33 -1.36 3.66 0 4 C0 2.68 0 1.36 0 0 Z " fill="#54637C" transform="translate(349,369)"/>
<path d="M0 0 C7.09727428 -0.10808032 13.96094956 0.06145994 21 1 C21 1.33 21 1.66 21 2 C13.98194143 3.10087193 7.09434233 3.09733092 0 3 C0 2.01 0 1.02 0 0 Z " fill="#FEAA02" transform="translate(343,287)"/>
<path d="M0 0 C0 0.99 0 1.98 0 3 C-5.94 3.495 -5.94 3.495 -12 4 C-12 3.34 -12 2.68 -12 2 C-14.97 2 -17.94 2 -21 2 C-21 1.67 -21 1.34 -21 1 C-13.96094956 0.06145994 -7.09727428 -0.10808032 0 0 Z " fill="#FEAA02" transform="translate(221,287)"/>
<path d="M0 0 C0.99 0 1.98 0 3 0 C2.49416388 4.35019062 1.70024001 7.49968887 -1 11 C-2.32 11.33 -3.64 11.66 -5 12 C-3.35 8.04 -1.7 4.08 0 0 Z " fill="#FFAF06" transform="translate(319,256)"/>
<path d="M0 0 C1.1577506 3.47325181 1.06866652 6.36067448 1 10 C-2.0916909 7.47043472 -2.90931332 4.77545388 -4 1 C-2 0 -2 0 0 0 Z " fill="#F5BD04" transform="translate(222,355)"/>
<path d="M0 0 C3.77300358 1.0197307 4.80206144 1.65872662 6.8125 5.125 C7.204375 6.07375 7.59625 7.0225 8 8 C5.6875 7.8125 5.6875 7.8125 3 7 C0 2.96551724 0 2.96551724 0 0 Z " fill="#C38D1C" transform="translate(211,361)"/>
<path d="M0 0 C0 0.33 0 0.66 0 1 C-3.3 0.67 -6.6 0.34 -10 0 C-10 -0.33 -10 -0.66 -10 -1 C-5.94568308 -2.15837626 -3.78187881 -1.83691257 0 0 Z " fill="#C18C54" transform="translate(521,85)"/>
</svg>
