<?xml version="1.0" encoding="UTF-8"?>
<svg version="1.1" xmlns="http://www.w3.org/2000/svg" width="1026" height="398">
<path d="M0 0 C338.58 0 677.16 0 1026 0 C1026 131.34 1026 262.68 1026 398 C687.42 398 348.84 398 0 398 C0 266.66 0 135.32 0 0 Z " fill="#FEFEFE" transform="translate(0,0)"/>
<path d="M0 0 C2.09103493 -0.00216314 4.18152062 -0.0202936 6.27246094 -0.03930664 C45.07707468 -0.20306697 80.11262696 16.38273451 107.62402344 43.18530273 C122.35454801 58.38626323 134.31158498 78.6573476 139.62402344 99.18530273 C139.96433594 100.40088867 140.30464844 101.61647461 140.65527344 102.86889648 C143.05951269 111.66120585 144.39950583 120.03621016 144.62402344 129.18530273 C144.64980469 129.94359375 144.67558594 130.70188477 144.70214844 131.4831543 C145.85230535 167.69872008 131.72042962 200.79751812 107.37402344 227.31030273 C88.36598748 247.47629678 62.80287686 261.73852847 35.62402344 267.18530273 C34.43292969 267.48178711 33.24183594 267.77827148 32.01464844 268.08374023 C22.08309291 270.29300463 12.19426157 270.50412245 2.06152344 270.56030273 C1.36922638 270.56815796 0.67692932 270.57601318 -0.03634644 270.58410645 C-13.9234969 270.70659963 -27.06948069 268.54157292 -40.37597656 264.49780273 C-41.20919434 264.24579102 -42.04241211 263.9937793 -42.90087891 263.73413086 C-51.21486434 261.10282184 -58.77153211 257.41474094 -66.37597656 253.18530273 C-67.7565625 252.42926758 -67.7565625 252.42926758 -69.16503906 251.65795898 C-97.00198947 235.70694454 -115.54870881 212.05513269 -128.37597656 183.18530273 C-128.92253906 182.00452148 -129.46910156 180.82374023 -130.03222656 179.60717773 C-131.61452214 175.57784365 -132.56303913 171.60229341 -133.43847656 167.37280273 C-133.60766602 166.5702002 -133.77685547 165.76759766 -133.95117188 164.94067383 C-134.28197632 163.36919338 -134.6106862 161.79727014 -134.93701172 160.22485352 C-135.27828978 158.63918226 -135.66734865 157.06376436 -136.07519531 155.49389648 C-143.26034078 127.00810699 -134.06251918 92.60105094 -119.49023438 67.99243164 C-116.72332875 63.50500057 -113.64170587 59.31798213 -110.37597656 55.18530273 C-109.74046875 54.34741211 -109.10496094 53.50952148 -108.45019531 52.64624023 C-85.9615459 23.53267807 -52.91835266 6.51106783 -17.03735352 0.63891602 C-11.36673667 -0.0636249 -5.70438248 -0.00065749 0 0 Z " fill="#0A1A47" transform="translate(179.3759765625,68.814697265625)"/>
<path d="M0 0 C1.5778125 0.8353125 1.5778125 0.8353125 3.1875 1.6875 C26.68851804 14.63704055 44.07958822 36.382765 51.61938477 62.11376953 C57.14470534 84.18062615 51.93060372 108.47101307 40.89599609 127.94873047 C27.69859547 149.45365818 6.50608012 165.9320143 -18.00390625 172.32421875 C-18.99261719 172.54722656 -19.98132813 172.77023437 -21 173 C-21.69810791 173.16846436 -22.39621582 173.33692871 -23.11547852 173.51049805 C-48.64188863 179.24217611 -75.84748718 174.08352517 -98.30078125 161.08984375 C-105.15401447 156.70969596 -111.14621034 151.62583835 -117 146 C-117.93070313 145.13246094 -118.86140625 144.26492188 -119.8203125 143.37109375 C-135.60070208 128.25717839 -145.8122717 107.20975014 -146.47070312 85.25561523 C-146.7187866 58.74582853 -137.74781715 35.88740098 -119.55859375 16.46875 C-105.47042154 2.87527696 -89.93823343 -5.35944607 -71 -10 C-70.29464111 -10.18473877 -69.58928223 -10.36947754 -68.86254883 -10.55981445 C-46.29550936 -16.13115359 -20.06506941 -11.19013486 0 0 Z " fill="#FEFEFE" transform="translate(230,124)"/>
<path d="M0 0 C0.92780273 0.25845703 1.85560547 0.51691406 2.81152344 0.78320312 C38.30437061 11.11580504 67.78978932 33.19439143 86.02880859 65.55859375 C91.07848177 74.83654361 94.6875341 84.33059206 97.5 94.5 C97.8403125 95.70011719 98.180625 96.90023437 98.53125 98.13671875 C105.0914579 126.23020165 100.96986693 156.00436746 86.07421875 180.61328125 C81.25554954 188.22587369 75.78295366 195.03259266 69.5 201.5 C68.89027344 202.17160156 68.28054688 202.84320313 67.65234375 203.53515625 C57.56126312 214.31183047 44.43790262 221.67914972 31.5 228.5 C30.7265625 228.92023438 29.953125 229.34046875 29.15625 229.7734375 C24.10020354 232.28139705 18.67809858 233.65906765 13.25 235.125 C12.10664185 235.4348584 12.10664185 235.4348584 10.94018555 235.75097656 C-0.67834446 238.74475302 -12.01862775 239.82623355 -24 239.75 C-25.21558594 239.75773438 -26.43117188 239.76546875 -27.68359375 239.7734375 C-35.79988327 239.75611351 -43.52411727 238.98248115 -51.5 237.5 C-52.27617676 237.35933105 -53.05235352 237.21866211 -53.85205078 237.07373047 C-78.94386022 232.2586081 -100.54728312 219.52958836 -115.29638672 198.328125 C-117.42250048 195.09884713 -119.33843839 191.76920173 -121.1875 188.375 C-121.53893066 187.73546387 -121.89036133 187.09592773 -122.25244141 186.43701172 C-123.08697499 184.83293401 -123.80365571 183.16871694 -124.5 181.5 C-124.17 180.51 -123.84 179.52 -123.5 178.5 C-122.99210937 179.14066406 -122.48421875 179.78132812 -121.9609375 180.44140625 C-120.52181823 182.24973777 -119.07608651 184.05281985 -117.625 185.8515625 C-116.43833639 187.33052927 -115.26167671 188.81821576 -114.125 190.3359375 C-105.81786122 200.97945906 -93.31662421 208.36236985 -81.5 214.5 C-80.45328125 215.05558594 -79.4065625 215.61117187 -78.328125 216.18359375 C-63.52739404 223.56555036 -47.61795042 225.67765165 -31.25 225.6875 C-29.66638672 225.70586914 -29.66638672 225.70586914 -28.05078125 225.72460938 C-0.79856532 225.77464404 25.13425229 214.4725853 44.58203125 195.5703125 C57.22771803 182.64962751 65.00885738 166.91115954 69.5 149.5 C69.67732666 148.88809814 69.85465332 148.27619629 70.03735352 147.64575195 C71.96122771 140.32612555 71.85339142 132.95995321 71.8125 125.4375 C71.81067719 124.74613953 71.80885437 124.05477905 71.80697632 123.34246826 C71.76138079 113.0901573 71.22589298 103.45830257 68.5 93.5 C68.15585387 92.11207733 67.8121223 90.72405182 67.46875 89.3359375 C60.4689288 62.37185895 43.92930885 38.55677425 19.796875 24.28125 C14.83990439 21.60307631 9.76882048 19.47936769 4.5 17.5 C3.60796875 17.14164063 2.7159375 16.78328125 1.796875 16.4140625 C-19.0547439 8.30509959 -41.6979892 8.3719605 -63.6875 10.3125 C-64.95968384 10.41751831 -64.95968384 10.41751831 -66.25756836 10.5246582 C-71.2731061 11.02130983 -75.72392856 12.06637375 -80.46557617 13.77075195 C-83.12558308 14.72424297 -85.83938105 15.43616839 -88.5625 16.1875 C-106.00415028 21.55416162 -121.96614339 31.54305199 -134.9765625 44.21484375 C-137.13968675 46.17371013 -138.82899064 47.40275437 -141.5 48.5 C-140.09115909 46.85062527 -138.68110703 45.20227265 -137.265625 43.55859375 C-136.12162068 42.2247657 -134.98564194 40.88399499 -133.859375 39.53515625 C-119.4966981 22.58853982 -99.56635851 10.17021374 -78.5 3.5 C-77.43007812 3.14164062 -76.36015625 2.78328125 -75.2578125 2.4140625 C-72.02309654 1.36218665 -68.77741444 0.40974493 -65.5 -0.5 C-64.44425781 -0.80164063 -63.38851562 -1.10328125 -62.30078125 -1.4140625 C-43.02374531 -6.11792304 -19.06352897 -5.39763457 0 0 Z " fill="#FAFAFB" transform="translate(216.5,78.5)"/>
<path d="M0 0 C1.06089844 0.46277344 2.12179688 0.92554687 3.21484375 1.40234375 C21.00845865 9.66939005 38.2938382 25.55929001 46 44 C45.67 44.66 45.34 45.32 45 46 C44.2265625 45.14277344 43.453125 44.28554687 42.65625 43.40234375 C23.22998429 22.00434493 -0.32797617 8.86103162 -29 4 C-33.74766094 3.77658508 -38.49759642 3.81485501 -43.25 3.8125 C-44.53519531 3.80025391 -45.82039062 3.78800781 -47.14453125 3.77539062 C-54.07764237 3.7647243 -60.32470273 4.13501786 -67 6 C-68.78083984 6.39058594 -68.78083984 6.39058594 -70.59765625 6.7890625 C-96.72448153 13.09249047 -118.56000537 29.8369752 -132.87890625 52.39453125 C-136.85131115 58.98304208 -139.78862711 65.69745708 -142.1875 73 C-142.44724609 73.75539063 -142.70699219 74.51078125 -142.97460938 75.2890625 C-146.24473369 85.12478526 -146.27466848 94.83333222 -146.3125 105.125 C-146.31545074 105.83054016 -146.31840149 106.53608032 -146.32144165 107.26300049 C-146.34154604 128.47583327 -142.39357338 147.9120738 -133 167 C-132.55914062 167.92941406 -132.11828125 168.85882813 -131.6640625 169.81640625 C-120.81373712 191.36026041 -100.42358356 206.16107165 -78 214 C-72.41235582 215.68657572 -66.73239008 216.92192966 -61 218 C-59.70594238 218.2638147 -59.70594238 218.2638147 -58.38574219 218.53295898 C-49.84350718 220.14673316 -41.41172157 220.44124972 -32.75 220.4375 C-32.0073288 220.43823517 -31.26465759 220.43897034 -30.4994812 220.43972778 C-2.83485358 220.36823147 27.3565338 213.22824245 49 195 C49.66 195.33 50.32 195.66 51 196 C18.60379749 223.39494544 -18.97833026 232.0530912 -60.76171875 229.796875 C-63.93361867 229.40726914 -66.89996079 228.78473056 -70 228 C-70.79873535 227.80051758 -71.5974707 227.60103516 -72.42041016 227.39550781 C-107.45115999 218.39136814 -139.03457501 197.28597595 -158 166 C-161.35566377 159.83209452 -164.22010854 153.44339669 -167 147 C-167.43183594 146.02546875 -167.86367187 145.0509375 -168.30859375 144.046875 C-178.31257134 119.28994991 -178.55023919 89.36774197 -168.57055664 64.70043945 C-155.14533389 33.1472687 -129.0330736 10.83378139 -97.96484375 -2.28125 C-67.30592903 -13.92722624 -29.94903705 -13.59461409 0 0 Z " fill="#FAFAFB" transform="translate(224,103)"/>
<path d="M0 0 C6.93 0 13.86 0 21 0 C23.66268486 12.03996631 26.29421163 24.06346408 28.421875 36.2109375 C28.71215883 38.89511491 28.71215883 38.89511491 30 40 C33.14144479 28.72007273 36.25680265 17.45168983 38.79394531 6.01782227 C39.9005679 1.0994321 39.9005679 1.0994321 41 0 C42.56172745 -0.08685603 44.12729344 -0.10702219 45.69140625 -0.09765625 C46.63564453 -0.09443359 47.57988281 -0.09121094 48.55273438 -0.08789062 C49.54595703 -0.07951172 50.53917969 -0.07113281 51.5625 -0.0625 C52.55958984 -0.05798828 53.55667969 -0.05347656 54.58398438 -0.04882812 C57.05604849 -0.03700007 59.52799518 -0.02051849 62 0 C65.84330821 13.62163661 69.46136037 27.29624696 73 41 C76.06917798 27.37904276 78.83385692 13.79491116 81 0 C87.93 0 94.86 0 102 0 C101.03198888 13.93936006 97.92858092 27.39965685 94.90942383 41.00561523 C93.19119493 48.86028396 91.78601415 56.74562131 90.45825195 64.67431641 C88.9562718 73.53269908 87.02558185 82.24659271 85 91 C78.07 91 71.14 91 64 91 C63.48050781 89.04320312 62.96101563 87.08640625 62.42578125 85.0703125 C58.69202909 71.02574284 54.94236671 56.98782035 51 43 C50.72027344 44.21429688 50.44054687 45.42859375 50.15234375 46.6796875 C47.69046389 57.25030576 45.05814381 67.76577872 42.25 78.25 C41.94441162 79.39839355 41.63882324 80.54678711 41.32397461 81.72998047 C41.03659424 82.79361816 40.74921387 83.85725586 40.453125 84.953125 C40.19692383 85.90348633 39.94072266 86.85384766 39.67675781 87.83300781 C39 90 39 90 38 91 C36.5112814 91.08669432 35.018555 91.10703494 33.52734375 91.09765625 C32.62822266 91.09443359 31.72910156 91.09121094 30.80273438 91.08789062 C29.38444336 91.07532227 29.38444336 91.07532227 27.9375 91.0625 C26.98810547 91.05798828 26.03871094 91.05347656 25.06054688 91.04882812 C22.70696935 91.0370011 20.35351523 91.02052025 18 91 C16.46487623 86.70492403 15.45149691 82.53008289 14.66796875 78.0390625 C14.55124817 77.38038681 14.43452759 76.72171112 14.31427002 76.04307556 C14.06476689 74.63483064 13.81706131 73.22626623 13.5710144 71.81741333 C12.91825811 68.08584133 12.24937217 64.35719085 11.578125 60.62890625 C11.4442186 59.88513229 11.31031219 59.14135834 11.17234802 58.37504578 C10.03109775 52.08181359 8.76975875 45.81813805 7.4375 39.5625 C5.60058091 30.93255868 3.85728037 22.28895473 2.1875 13.625 C1.96827881 12.49392822 1.74905762 11.36285645 1.52319336 10.19750977 C1.32346924 9.15522217 1.12374512 8.11293457 0.91796875 7.0390625 C0.74031982 6.11303223 0.5626709 5.18700195 0.37963867 4.23291016 C0 2 0 2 0 0 Z " fill="#0757BF" transform="translate(374,161)"/>
<path d="M0 0 C8.25 -0.0825 16.5 -0.165 25 -0.25 C27.58972656 -0.28641602 30.17945313 -0.32283203 32.84765625 -0.36035156 C34.91926242 -0.37204306 36.99087783 -0.38223379 39.0625 -0.390625 C40.65288086 -0.4213208 40.65288086 -0.4213208 42.27539062 -0.45263672 C48.70838808 -0.45564279 53.66370791 0.21811896 59 4 C63.30398905 8.52470644 64.12754087 11.85412216 64.09765625 17.98046875 C64.09282227 19.72553711 64.09282227 19.72553711 64.08789062 21.50585938 C64.07532227 23.32827148 64.07532227 23.32827148 64.0625 25.1875 C64.05798828 26.41404297 64.05347656 27.64058594 64.04882812 28.90429688 C64.03703065 31.93624668 64.02056921 34.96809906 64 38 C63.34 38 62.68 38 62 38 C61.690625 38.61875 61.38125 39.2375 61.0625 39.875 C59 44 59 44 56 46 C56.94875 46.5775 57.8975 47.155 58.875 47.75 C61.95796136 49.96973218 62.72810413 50.61708444 64 54 C64.55300565 58.21466582 64.55456971 62.44055348 64.625 66.6875 C64.68300781 67.83412109 64.74101563 68.98074219 64.80078125 70.16210938 C64.89621765 76.57470115 64.39268414 80.35017863 60.0859375 85.26953125 C56.20676861 89.0939591 54.24629478 90.12615417 48.81591797 90.11352539 C47.71981201 90.11340454 46.62370605 90.11328369 45.49438477 90.11315918 C44.33865967 90.10804321 43.18293457 90.10292725 41.9921875 90.09765625 C40.93265869 90.09664917 39.87312988 90.09564209 38.78149414 90.09460449 C34.8126518 90.08936107 30.84382484 90.07539988 26.875 90.0625 C18.00625 90.041875 9.1375 90.02125 0 90 C0 60.3 0 30.6 0 0 Z " fill="#0556BF" transform="translate(571,161)"/>
<path d="M0 0 C6.93 0 13.86 0 21 0 C25.53912417 9.55605089 29.64621361 19.24808813 33.65966797 29.03515625 C34.07748535 30.04964844 34.49530273 31.06414062 34.92578125 32.109375 C35.48906128 33.48561035 35.48906128 33.48561035 36.0637207 34.88964844 C36.82350103 36.94336446 36.82350103 36.94336446 38 38 C38.21624023 37.44779785 38.43248047 36.8955957 38.65527344 36.32666016 C41.70588297 28.61270843 44.97021461 20.99338378 48.25 13.375 C48.81000966 12.07166349 49.36990625 10.76827838 49.9296875 9.46484375 C51.28495142 6.30924403 52.64251864 3.15465008 54 0 C60.93 0 67.86 0 75 0 C75 29.7 75 59.4 75 90 C68.07 90 61.14 90 54 90 C53.67 78.12 53.34 66.24 53 54 C48.08606956 64.5756315 48.08606956 64.5756315 43.625 75.3125 C43.36589844 75.96927734 43.10679687 76.62605469 42.83984375 77.30273438 C42.22320479 78.86717026 41.61104971 80.43337256 41 82 C38.69 82 36.38 82 34 82 C32.37378819 78.27136063 30.74924402 74.54199694 29.125 70.8125 C28.66480469 69.75740234 28.20460938 68.70230469 27.73046875 67.61523438 C27.28574219 66.59365234 26.84101562 65.57207031 26.3828125 64.51953125 C25.97434082 63.58214111 25.56586914 62.64475098 25.14501953 61.67895508 C24.05792352 59.13552128 23.02727179 56.56817949 22 54 C21.67 66.21 21.34 78.42 21 91 C14.07 91 7.14 91 0 91 C0 60.97 0 30.94 0 0 Z " fill="#0757BF" transform="translate(653,161)"/>
<path d="M0 0 C18.81 0 37.62 0 57 0 C57 6.93 57 13.86 57 21 C45.12 21 33.24 21 21 21 C21 25.62 21 30.24 21 35 C29.58 35 38.16 35 47 35 C47 41.6 47 48.2 47 55 C38.42 55 29.84 55 21 55 C21 59.95 21 64.9 21 70 C32.88 70 44.76 70 57 70 C57 76.93 57 83.86 57 91 C38.19 91 19.38 91 0 91 C0 60.97 0 30.94 0 0 Z " fill="#0757BF" transform="translate(495,161)"/>
<path d="M0 0 C18.81 0 37.62 0 57 0 C57 6.93 57 13.86 57 21 C45.12 21 33.24 21 21 21 C21 25.62 21 30.24 21 35 C29.58 35 38.16 35 47 35 C47 41.6 47 48.2 47 55 C38.42 55 29.84 55 21 55 C21 59.95 21 64.9 21 70 C32.88 70 44.76 70 57 70 C57 76.6 57 83.2 57 90 C38.19 90 19.38 90 0 90 C0 60.3 0 30.6 0 0 Z " fill="#0555BF" transform="translate(909,161)"/>
<path d="M0 0 C7.26 0 14.52 0 22 0 C24.68644601 9.71913679 27.37273201 19.43831777 30.05874348 29.15757465 C31.30623535 33.67156455 32.55379481 38.18553573 33.80151367 42.69946289 C35.00768803 47.06310268 36.2136784 51.42679328 37.41954613 55.79051781 C37.87753051 57.44772302 38.33557899 59.10491053 38.79369545 60.76207924 C39.01302427 61.55548399 39.2323531 62.34888874 39.45832825 63.16633606 C39.6717345 63.93829913 39.88514074 64.7102622 40.10501385 65.5056181 C40.71001942 67.69619628 41.31342646 69.88720992 41.91665649 72.07827759 C42.59308722 74.53364566 43.27818686 76.98591369 43.96981812 79.43710327 C44.38344101 80.91299423 44.38344101 80.91299423 44.80541992 82.41870117 C45.03976242 83.24512619 45.27410492 84.07155121 45.51554871 84.92301941 C46 87 46 87 46 90 C39.4 90 32.8 90 26 90 C23 82 23 82 22 79 C14.41 78.67 6.82 78.34 -1 78 C-1.66 81.96 -2.32 85.92 -3 90 C-9.93 90 -16.86 90 -24 90 C-21.22463011 76.67822452 -17.70377933 63.73089542 -13.80322266 50.69775391 C-12.73751627 47.11840571 -11.70893342 43.52973214 -10.6875 39.9375 C-10.40261719 38.93589844 -10.11773438 37.93429688 -9.82421875 36.90234375 C-9.55222656 35.94457031 -9.28023437 34.98679688 -9 34 C-8.67515625 32.88238281 -8.3503125 31.76476562 -8.015625 30.61328125 C-6.95577388 26.84265707 -5.99570218 23.05330907 -5.0625 19.25 C-3.46800846 12.80597204 -1.77685035 6.39666127 0 0 Z " fill="#0656BF" transform="translate(771,161)"/>
<path d="M0 0 C6.93 0 13.86 0 21 0 C21.99580078 3.51140625 21.99580078 3.51140625 23.01171875 7.09375 C23.67324751 9.42087808 24.33549329 11.74780103 24.99780273 14.07470703 C25.44939447 15.6627114 25.90026852 17.25092007 26.3503418 18.83935547 C29.40385425 29.61364857 32.60351 40.32871297 36 51 C36.24121582 50.0570105 36.24121582 50.0570105 36.48730469 49.0949707 C42.00464175 27.58247207 42.00464175 27.58247207 45.05859375 18.01171875 C46.53961329 13.27368529 47.84542466 8.48746778 49.16796875 3.703125 C50 1 50 1 51 0 C52.4887186 -0.08669432 53.981445 -0.10703494 55.47265625 -0.09765625 C56.37177734 -0.09443359 57.27089844 -0.09121094 58.19726562 -0.08789062 C59.61555664 -0.07532227 59.61555664 -0.07532227 61.0625 -0.0625 C62.01189453 -0.05798828 62.96128906 -0.05347656 63.93945312 -0.04882812 C66.29303065 -0.0370011 68.64648477 -0.02052025 71 0 C69.52883375 6.96640488 67.70702308 13.78078976 65.75 20.625 C63.04895677 30.15107676 60.46989935 39.69987381 58.04199219 49.29931641 C56.77537152 54.25254617 55.35013236 59.09541568 53.69604492 63.93286133 C51.53926348 70.33814665 50.00379702 76.91650226 48.41210938 83.47851562 C47.10601229 88.78797542 47.10601229 88.78797542 46 91 C39.07 91 32.14 91 25 91 C18.78773492 69.40818137 12.62797952 47.80271385 6.62411499 26.15188599 C6.04101199 24.04933174 5.4570468 21.94701642 4.8722229 19.84494019 C4.05268065 16.8973828 3.23667942 13.9488701 2.421875 11 C2.17557846 10.11546646 1.92928192 9.23093292 1.67552185 8.31959534 C1.45356644 7.51287888 1.23161102 6.70616241 1.00292969 5.875 C0.80818054 5.17117187 0.6134314 4.46734375 0.41278076 3.7421875 C0 2 0 2 0 0 Z " fill="#0757BF" transform="translate(819,161)"/>
<path d="M0 0 C3.29188269 -0.05376941 6.58289426 -0.09356106 9.875 -0.125 C10.81214844 -0.14175781 11.74929688 -0.15851563 12.71484375 -0.17578125 C13.61074219 -0.18222656 14.50664063 -0.18867188 15.4296875 -0.1953125 C16.25710449 -0.20578613 17.08452148 -0.21625977 17.93701172 -0.22705078 C20 0 20 0 22 2 C22.265625 4.3125 22.265625 4.3125 22.25 7 C22.25515625 7.886875 22.2603125 8.77375 22.265625 9.6875 C22 12 22 12 20 14 C17.93701172 14.22705078 17.93701172 14.22705078 15.4296875 14.1953125 C14.53378906 14.18886719 13.63789062 14.18242187 12.71484375 14.17578125 C11.77769531 14.15902344 10.84054687 14.14226562 9.875 14.125 C8.93011719 14.11597656 7.98523438 14.10695312 7.01171875 14.09765625 C4.67437173 14.07404668 2.33715451 14.03817494 0 14 C0 9.38 0 4.76 0 0 Z " fill="#FAFCFD" transform="translate(592,217)"/>
<path d="M0 0 C3.29188269 -0.05376941 6.58289426 -0.09356106 9.875 -0.125 C10.81214844 -0.14175781 11.74929688 -0.15851563 12.71484375 -0.17578125 C13.61074219 -0.18222656 14.50664063 -0.18867188 15.4296875 -0.1953125 C16.25710449 -0.20578613 17.08452148 -0.21625977 17.93701172 -0.22705078 C20 0 20 0 22 2 C22.265625 4.3125 22.265625 4.3125 22.25 7 C22.25515625 7.886875 22.2603125 8.77375 22.265625 9.6875 C22 12 22 12 20 14 C17.93701172 14.22705078 17.93701172 14.22705078 15.4296875 14.1953125 C14.53378906 14.18886719 13.63789062 14.18242187 12.71484375 14.17578125 C11.77769531 14.15902344 10.84054687 14.14226562 9.875 14.125 C8.93011719 14.11597656 7.98523438 14.10695312 7.01171875 14.09765625 C4.67437173 14.07404668 2.33715451 14.03817494 0 14 C0 9.38 0 4.76 0 0 Z " fill="#FAFCFD" transform="translate(592,182)"/>
<path d="M0 0 C0.66 0 1.32 0 2 0 C2.67321284 2.24805002 3.33834123 4.49852224 4 6.75 C4.556875 8.62945312 4.556875 8.62945312 5.125 10.546875 C6 14 6 14 6 18 C2.37 18 -1.26 18 -5 18 C-3.35 12.06 -1.7 6.12 0 0 Z " fill="#E5EDF8" transform="translate(781,200)"/>
<path d="M0 0 C0.66 0.33 1.32 0.66 2 1 C-5.0407781 6.85693046 -12.31136934 12.0327747 -20 17 C-20.66 16.34 -21.32 15.68 -22 15 C-19.2745611 11.80705881 -15.75354147 10.04273313 -12.125 8.0625 C-7.75438394 5.67476344 -3.81788023 3.24447236 0 0 Z " fill="#CFD2DB" transform="translate(273,298)"/>
<path d="M0 0 C0.66 0.33 1.32 0.66 2 1 C-0.3562671 4.34837956 -3.08501267 7.14884451 -6 10 C-7.60551527 11.60281693 -9.209592 13.20707566 -10.8125 14.8125 C-12.20833333 16.20833333 -13.60416667 17.60416667 -15 19 C-15.66 18.67 -16.32 18.34 -17 18 C-14.3544182 15.18726331 -11.70849239 12.37485045 -9.0625 9.5625 C-8.30775391 8.76005859 -7.55300781 7.95761719 -6.77539062 7.13085938 C-6.05673828 6.36708984 -5.33808594 5.60332031 -4.59765625 4.81640625 C-3.93258057 4.10943604 -3.26750488 3.40246582 -2.58227539 2.67407227 C-1.73112195 1.77353853 -0.87619153 0.87619153 0 0 Z " fill="#C3C7D2" transform="translate(92,108)"/>
</svg>
