<?xml version="1.0" encoding="UTF-8"?>
<svg version="1.1" xmlns="http://www.w3.org/2000/svg" width="320" height="367">
<path d="M0 0 C25.17324836 23.5900252 40.9858376 56.19066672 42.59765625 90.84765625 C43.56800377 128.94890829 29.60144445 161.96619751 4.25 190 C3.56035156 190.763125 2.87070312 191.52625 2.16015625 192.3125 C-17.15172407 212.56343581 -42.94874535 223.78568588 -69.75 230 C-70.7090625 230.23589844 -71.668125 230.47179687 -72.65625 230.71484375 C-99.8900707 236.61837767 -131.50351126 232.40466385 -156.75 221 C-157.35585937 220.72849121 -157.96171875 220.45698242 -158.5859375 220.17724609 C-192.30112917 204.85138964 -218.74884708 177.29219913 -232.14453125 142.65234375 C-243.8387414 110.3023328 -242.79330351 73.97017144 -228.66113281 42.58154297 C-224.48169053 33.88255583 -219.63482946 25.65961929 -213.75 18 C-212.88181641 16.82824219 -212.88181641 16.82824219 -211.99609375 15.6328125 C-201.79434887 2.30026073 -189.79803136 -7.9196391 -175.75 -17 C-175.16138184 -17.38526855 -174.57276367 -17.77053711 -173.96630859 -18.16748047 C-119.85249005 -53.04854997 -46.27514599 -42.43948768 0 0 Z M-198.75 10 C-198.42 10.66 -198.09 11.32 -197.75 12 C-196.90179688 11.3709375 -196.05359375 10.741875 -195.1796875 10.09375 C-169.13416222 -9.00980413 -141.59940012 -19.45831606 -109 -19.3125 C-107.6888623 -19.30758545 -106.37772461 -19.3026709 -105.02685547 -19.29760742 C-95.00513014 -19.1770202 -85.47328305 -18.4531551 -75.75 -16 C-75.08436035 -15.83371094 -74.4187207 -15.66742188 -73.73291016 -15.49609375 C-47.86362887 -8.76222443 -24.49548526 6.06088727 -10.73828125 29.421875 C5.45752254 58.16217896 12.04712702 92.90340401 3.5 125.125 C-4.61244064 151.30470771 -21.53242088 172.83334427 -45.75 186 C-50.61471932 188.38155319 -55.63356067 190.23701195 -60.75 192 C-61.88050781 192.39058594 -63.01101562 192.78117188 -64.17578125 193.18359375 C-93.53385075 202.42783017 -124.15598499 197.7173996 -151.1875 183.875 C-163.42958372 177.35885341 -173.33338433 169.02869053 -182.4453125 158.62890625 C-184.46880784 156.3207497 -186.55283374 154.14147772 -188.75 152 C-187.41335849 157.65502175 -185.25318951 161.99953347 -182.125 166.875 C-181.67769531 167.57753906 -181.23039062 168.28007812 -180.76953125 169.00390625 C-167.13107541 190.02500201 -145.72632567 202.17674147 -121.6875 207.75 C-120.32238281 208.06650513 -120.32238281 208.06650513 -118.9296875 208.3894043 C-93.32651589 214.00045908 -66.40187414 211.47248677 -41.75 203 C-40.73164063 202.65453125 -39.71328125 202.3090625 -38.6640625 201.953125 C-23.71596632 196.30151603 -10.41089246 186.77382595 1.25 176 C2.47783203 174.89398438 2.47783203 174.89398438 3.73046875 173.765625 C9.94137639 167.90748836 14.68996537 161.1686847 19.25 154 C19.95382812 152.906875 20.65765625 151.81375 21.3828125 150.6875 C25.26858656 144.30478367 28.22860321 137.95821456 30.625 130.875 C30.86371826 130.17157471 31.10243652 129.46814941 31.34838867 128.7434082 C41.18812285 97.75091454 34.6800076 64.95103062 20.34375 36.65185547 C17.19123047 30.65643886 13.5221276 25.26255164 9.25 20 C8.80108398 19.44570312 8.35216797 18.89140625 7.88964844 18.3203125 C-14.74391068 -9.41525961 -47.23801178 -27.92990159 -83.16015625 -31.6484375 C-126.3899106 -35.37102619 -168.40417325 -21.71560365 -198.75 10 Z M-203.53515625 25.43359375 C-224.53088679 49.76197993 -234.70264338 76.56988951 -233.02490234 108.71484375 C-230.24555771 141.92875259 -212.6310115 173.24154275 -187.48828125 194.85546875 C-157.450254 218.38025757 -120.56407287 229.5712883 -82.49609375 225.5 C-59.37596544 222.57620527 -31.14395338 214.58192102 -14.75 197 C-17.86688828 198.16805232 -20.85076432 199.51562357 -23.83203125 200.98828125 C-33.92502809 205.96779312 -43.81067835 210.28756954 -54.75 213 C-56.00425781 213.31839844 -57.25851563 213.63679687 -58.55078125 213.96484375 C-79.06643438 218.50657276 -104.41696086 218.16659191 -124.75 213 C-125.74773437 212.75056641 -125.74773437 212.75056641 -126.765625 212.49609375 C-137.45138015 209.74308431 -147.11699081 205.33030022 -156.75 200 C-157.760625 199.44441406 -158.77125 198.88882813 -159.8125 198.31640625 C-181.02362521 185.7524301 -193.47616028 163.40639156 -199.625 140.1875 C-207.6285322 108.04755994 -206.73496541 76.01466958 -189.75 47 C-187.2708744 43.1630327 -184.6118469 39.55828817 -181.75 36 C-180.97462891 34.9790625 -180.97462891 34.9790625 -180.18359375 33.9375 C-167.77572199 18.51317822 -148.56287277 8.11437373 -129.75 3 C-128.66460937 2.68160156 -127.57921875 2.36320312 -126.4609375 2.03515625 C-107.92390996 -2.58844717 -86.94277835 -1.60749132 -68.75 4 C-67.57179687 4.33902344 -66.39359375 4.67804688 -65.1796875 5.02734375 C-45.43615716 11.34617294 -30.00419642 23.28844969 -15.75 38 C-14.41894392 39.3356067 -13.08637399 40.66971427 -11.75 42 C-19.42995762 20.71099832 -38.17756955 4.98459373 -58.04296875 -4.46875 C-106.60388801 -25.36871849 -167.10674096 -12.48723334 -203.53515625 25.43359375 Z M-164.75 28 C-165.38421875 28.46792969 -166.0184375 28.93585938 -166.671875 29.41796875 C-183.20678295 42.21283799 -193.69191153 64.63546004 -197.0625 84.8125 C-199.89941264 109.56595347 -195.09630822 131.94769611 -179.4375 151.8125 C-177.90057385 153.56443654 -176.33679934 155.29310473 -174.75 157 C-174.31349121 157.48275391 -173.87698242 157.96550781 -173.42724609 158.46289062 C-155.85200184 177.78016086 -130.82010205 190.47514856 -104.56103516 192.13867188 C-79.84712147 193.17073705 -56.73696644 188.07491537 -36.75 173 C-35.81671875 172.31164062 -34.8834375 171.62328125 -33.921875 170.9140625 C-15.08109035 156.33613695 -2.53073002 133.9466672 0.77734375 110.390625 C2.86026517 92.73124569 0.53545934 76.88679818 -7.75 61 C-8.14058594 60.22269531 -8.53117188 59.44539063 -8.93359375 58.64453125 C-11.93673085 52.92380124 -15.61029394 47.94765674 -19.75 43 C-20.44222656 42.17242187 -21.13445312 41.34484375 -21.84765625 40.4921875 C-40.32367099 19.1812287 -66.10367045 8.06415575 -93.75 5 C-120.11049258 3.20770709 -144.28163848 11.63129568 -164.75 28 Z M-11.75 42 C-10.75 44 -10.75 44 -10.75 44 Z M-190.75 148 C-189.75 150 -189.75 150 -189.75 150 Z M-189.75 150 C-188.75 152 -188.75 152 -188.75 152 Z M-13.75 195 C-14.08 195.66 -14.41 196.32 -14.75 197 C-13.76 196.67 -12.77 196.34 -11.75 196 C-12.41 195.67 -13.07 195.34 -13.75 195 Z " fill="#101F4B" transform="translate(258.75,93)"/>
</svg>
