<?xml version="1.0" encoding="UTF-8"?>
<svg version="1.1" xmlns="http://www.w3.org/2000/svg" width="1133" height="384">
<path d="M0 0 C373.89 0 747.78 0 1133 0 C1133 126.72 1133 253.44 1133 384 C759.11 384 385.22 384 0 384 C0 257.28 0 130.56 0 0 Z " fill="#2D185C" transform="translate(0,0)"/>
<path d="M0 0 C1.21623047 1.01513672 1.21623047 1.01513672 2.45703125 2.05078125 C11.17725845 9.59223734 19.55043217 18.74198997 25 29 C25 29.99 25 30.98 25 32 C25.66 32 26.32 32 27 32 C41.98582498 62.37175693 47.03174027 93.46090105 36.3125 126.25 C25.55057009 157.18970297 4.20324986 182.03458276 -25 197 C-34.30352667 201.45286035 -43.83825203 205.10584065 -54 207 C-54.71494629 207.13390137 -55.42989258 207.26780273 -56.16650391 207.40576172 C-90.67944004 213.68919408 -125.76411513 208.59714845 -155.3034668 188.55273438 C-181.0672537 170.38756609 -199.93415672 144.86921544 -205.8125 113.5625 C-206.24400028 111.04506421 -206.62741914 108.52743286 -207 106 C-207.13148438 105.16855469 -207.26296875 104.33710938 -207.3984375 103.48046875 C-209.18172782 89.72021503 -208.87940157 75.32809554 -205 62 C-204.80664062 61.31760254 -204.61328125 60.63520508 -204.4140625 59.93212891 C-195.18524876 27.93748375 -174.16454103 1.15072291 -144.98730469 -15.12255859 C-98.46521774 -39.84092045 -40.3650338 -33.98779327 0 0 Z " fill="#F2305C" transform="translate(289,117)"/>
<path d="M0 0 C3.46338943 2.87441187 6.7474186 5.8907527 10 9 C11.04800781 9.93585938 11.04800781 9.93585938 12.1171875 10.890625 C18.11810002 16.44789029 21.93739882 22.98113099 26 30 C26.61875 30.93972656 26.61875 30.93972656 27.25 31.8984375 C36.4446753 46.04961746 36.17496466 66.63248753 32.9675293 82.63891602 C29.89135312 95.2954132 23.53692568 107.22022833 15 117 C14.53207031 117.598125 14.06414062 118.19625 13.58203125 118.8125 C9.45314073 123.99385281 4.44046088 128.23277439 -1 132 C-1.66 132 -2.32 132 -3 132 C-3 132.66 -3 133.32 -3 134 C-5.85381389 135.27162656 -8.70811571 136.54215438 -11.5625 137.8125 C-12.36236328 138.16892578 -13.16222656 138.52535156 -13.98632812 138.89257812 C-15.58067294 139.60189888 -17.17654487 140.3077971 -18.77392578 141.01025391 C-20.68298991 141.85905255 -22.57575229 142.74435198 -24.46484375 143.63671875 C-32.89198745 146.88652334 -41.22540311 147.35996582 -50.1875 147.3125 C-51.28739258 147.30758545 -52.38728516 147.3026709 -53.52050781 147.29760742 C-79.44026602 146.92585449 -102.16908306 136.19067286 -120.27270508 117.80249023 C-129.2759371 108.32074304 -134.93679488 97.0701627 -139.625 84.9375 C-139.98464844 84.02291016 -139.98464844 84.02291016 -140.3515625 83.08984375 C-146.04946226 64.72613066 -140.67208885 42.62363691 -132.5078125 25.953125 C-128.11901744 17.84750349 -122.46297808 11.47239933 -116 5 C-115.34257812 4.33097656 -114.68515625 3.66195312 -114.0078125 2.97265625 C-108.14841176 -2.57239896 -101.04298622 -6.19545543 -94 -10 C-93.30132812 -10.41378906 -92.60265625 -10.82757813 -91.8828125 -11.25390625 C-64.01907971 -27.04335483 -24.17069383 -18.36301323 0 0 Z " fill="#2D185C" transform="translate(260,144)"/>
<path d="M0 0 C0.68408936 0.00182281 1.36817871 0.00364563 2.07299805 0.00552368 C34.80870709 0.15233131 63.23132632 11.72059116 86.875 34.3125 C87.47570312 34.85003906 88.07640625 35.38757813 88.6953125 35.94140625 C108.23485061 54.07227999 119.87093442 81.80749541 121.265625 108.0859375 C122.06854031 135.1611463 113.84150866 159.0376682 95.13671875 178.94921875 C94.39035156 179.72910156 93.64398438 180.50898438 92.875 181.3125 C92.20082031 182.06144531 91.52664063 182.81039062 90.83203125 183.58203125 C84.38937224 190.4840168 76.86940454 195.40417074 68.875 200.3125 C67.823125 200.96476563 66.77125 201.61703125 65.6875 202.2890625 C59.4653136 205.89221636 53.13333436 208.43403266 46.3125 210.625 C45.55743164 210.86766602 44.80236328 211.11033203 44.02441406 211.36035156 C33.56611431 214.52966915 23.21515015 215.68271215 12.3125 215.625 C11.18134766 215.61936035 10.05019531 215.6137207 8.88476562 215.60791016 C-16.41979547 215.24631414 -41.27403264 209.04495844 -60.125 191.3125 C-67.18893243 183.92794985 -73.20420603 175.79600887 -77.125 166.3125 C-76.63 165.3225 -76.63 165.3225 -76.125 164.3125 C-75.45855469 165.07433594 -74.79210937 165.83617187 -74.10546875 166.62109375 C-54.9322933 188.23794368 -30.07042427 201.65301407 -0.94921875 203.515625 C24.6924201 203.89881263 48.75318015 196.72475317 67.875 179.3125 C68.52984375 178.72726562 69.1846875 178.14203125 69.859375 177.5390625 C84.44766228 163.78992449 94.34491246 141.84269457 95.1484375 121.91796875 C95.84310227 91.10825496 89.62120213 62.52273594 68.078125 39.55078125 C51.61057182 22.82044797 29.65875331 13.83750277 6.375 12.125 C4.94220703 12.0022168 4.94220703 12.0022168 3.48046875 11.87695312 C-26.1341572 9.49255496 -56.32750339 16.00621045 -80.0625 34.6875 C-82.88922339 37.09867966 -85.51878905 39.6654759 -88.125 42.3125 C-88.785 41.9825 -89.445 41.6525 -90.125 41.3125 C-81.73460758 32.46925282 -73.499 24.7766293 -63.125 18.3125 C-62.21878906 17.73886719 -61.31257813 17.16523437 -60.37890625 16.57421875 C-58.125 15.3125 -58.125 15.3125 -56.125 15.3125 C-56.125 14.6525 -56.125 13.9925 -56.125 13.3125 C-52.43961508 11.84878188 -48.75133355 10.39250271 -45.0625 8.9375 C-44.02416016 8.525 -42.98582031 8.1125 -41.91601562 7.6875 C-27.85175826 2.15109393 -15.11561948 -0.06368941 0 0 Z " fill="#2F185C" transform="translate(204.125,92.6875)"/>
<path d="M0 0 C1.38059612 1.11812537 2.75554251 2.24325966 4.125 3.375 C5.35089844 4.30699219 5.35089844 4.30699219 6.6015625 5.2578125 C13.35805428 10.92657186 18.91433665 18.65545052 23.125 26.375 C22.795 27.035 22.465 27.695 22.125 28.375 C21.44695312 27.66214844 20.76890625 26.94929688 20.0703125 26.21484375 C1.24095937 6.71350102 -24.56270819 -5.3988163 -51.85644531 -5.91699219 C-62.89881559 -5.99359932 -72.36413262 -5.09691547 -82.875 -1.625 C-83.91140625 -1.28984375 -84.9478125 -0.9546875 -86.015625 -0.609375 C-91.55393144 1.29725509 -96.66240733 3.72131646 -101.875 6.375 C-102.535 6.375 -103.195 6.375 -103.875 6.375 C-103.875 7.035 -103.875 7.695 -103.875 8.375 C-104.82375 8.849375 -105.7725 9.32375 -106.75 9.8125 C-125.09146433 20.33568357 -136.36057514 39.80948984 -142.84375 59.28515625 C-149.99892674 86.01769155 -144.39151166 118.81501616 -131.8046875 143.0703125 C-127.79173386 149.9426987 -122.71268186 155.97514428 -116.875 161.375 C-116.35035156 161.89320313 -115.82570312 162.41140625 -115.28515625 162.9453125 C-95.56932241 181.5357182 -65.89608341 186.74301537 -39.76953125 186.53125 C-21.88604028 185.81375788 -3.47960906 181.97180474 12.46875 173.625 C13.78359375 173.00625 13.78359375 173.00625 15.125 172.375 C15.785 172.705 16.445 173.035 17.125 173.375 C13.375 176.375 13.375 176.375 11.125 176.375 C11.125 177.035 11.125 177.695 11.125 178.375 C-2.05859375 184.234375 -2.05859375 184.234375 -4.47851562 185.30371094 C-6.05115746 186.00672157 -7.61789152 186.72313195 -9.17773438 187.45410156 C-34.95926871 199.40735839 -68.9002037 197.09898577 -95.125 187.6875 C-117.91742872 178.85218454 -140.21655257 162.56830971 -152.875 141.375 C-153.88820313 139.70630859 -153.88820313 139.70630859 -154.921875 138.00390625 C-158.4843843 132.01879327 -161.68997243 126.02185119 -164.0859375 119.4609375 C-164.81343999 117.38802295 -164.81343999 117.38802295 -165.84375 115.62109375 C-175.03638639 95.59925313 -172.46736556 69.90743069 -165.625 49.6796875 C-154.99313357 22.67716311 -132.8465519 2.60585974 -106.65307617 -8.95092773 C-98.9027353 -12.24860223 -91.19951224 -15.13496157 -82.875 -16.625 C-81.87597656 -16.80675781 -80.87695312 -16.98851563 -79.84765625 -17.17578125 C-52.50520519 -20.26760217 -22.40323004 -17.24459154 0 0 Z " fill="#2F185C" transform="translate(257.875,126.625)"/>
<path d="M0 0 C6.27 0 12.54 0 19 0 C19.44915771 1.41853271 19.89831543 2.83706543 20.36108398 4.29858398 C22.0222025 9.54192307 23.68735741 14.78397279 25.35375977 20.02563477 C26.07557269 22.29806901 26.79627808 24.57085534 27.51586914 26.84399414 C28.54805877 30.1039516 29.58417426 33.36263815 30.62109375 36.62109375 C30.94403915 37.64400009 31.26698456 38.66690643 31.59971619 39.72080994 C32.05006981 41.13215965 32.05006981 41.13215965 32.50952148 42.57202148 C32.77377426 43.40475082 33.03802704 44.23748016 33.31028748 45.09544373 C33.84153755 46.98289913 33.84153755 46.98289913 35 48 C38.38514735 39.04273725 41.70890874 30.07030151 44.9140625 21.046875 C47.43982354 13.96020733 50.18924216 6.97843326 53 0 C57.95 0 62.9 0 68 0 C68.50974365 1.4132959 69.0194873 2.8265918 69.54467773 4.28271484 C71.43130241 9.51248996 73.31953111 14.74168471 75.20825195 19.97070312 C76.02640034 22.2364948 76.84411016 24.50244488 77.66137695 26.76855469 C78.83430312 30.02059739 80.00879112 33.27207228 81.18359375 36.5234375 C81.73363319 38.05005508 81.73363319 38.05005508 82.29478455 39.60751343 C82.6350618 40.54833771 82.97533905 41.48916199 83.32592773 42.45849609 C83.6257103 43.28900482 83.92549286 44.11951355 84.23435974 44.97518921 C84.97046226 47.02589018 84.97046226 47.02589018 86 49 C86.3242395 47.97398682 86.3242395 47.97398682 86.6550293 46.92724609 C93.93991633 23.91358173 93.93991633 23.91358173 97.96875 12.90234375 C99.48089979 8.64655853 100.75074943 4.33950198 102 0 C108.27 0 114.54 0 121 0 C118.75343044 10.10956301 118.75343044 10.10956301 117.01171875 14.96875 C116.63805176 16.02457275 116.26438477 17.08039551 115.87939453 18.16821289 C115.28940674 19.81744751 115.28940674 19.81744751 114.6875 21.5 C111.95331763 29.26337513 109.32907467 36.99577091 107.10327148 44.91992188 C104.73097679 53.19049034 101.9656893 61.33746639 99.25 69.5 C98.99921692 70.25725372 98.74843384 71.01450745 98.49005127 71.79470825 C97.77285953 73.95805755 97.05130425 76.11989587 96.328125 78.28125 C96.10855133 78.94394394 95.88897766 79.60663788 95.66275024 80.28941345 C94.11523045 84.88476955 94.11523045 84.88476955 93 86 C90.81360547 86.07258946 88.62499611 86.08373783 86.4375 86.0625 C84.64119141 86.04896484 84.64119141 86.04896484 82.80859375 86.03515625 C81.41833984 86.01775391 81.41833984 86.01775391 80 86 C79.77893585 85.39500671 79.5578717 84.79001343 79.33010864 84.16668701 C77.02937991 77.8716427 74.72536419 71.5778086 72.41943359 65.28466797 C71.55921371 62.93569335 70.69983321 60.58641116 69.84130859 58.23681641 C68.60734931 54.86019026 67.37037849 51.48468065 66.1328125 48.109375 C65.74940704 47.05820496 65.36600159 46.00703491 64.97097778 44.92401123 C64.61075531 43.94329651 64.25053284 42.96258179 63.87939453 41.95214844 C63.56406769 41.09055115 63.24874084 40.22895386 62.92385864 39.34124756 C62.06052244 37.1533763 61.08789941 35.08385837 60 33 C59.80365967 33.59425781 59.60731934 34.18851563 59.4050293 34.80078125 C58.50082075 37.53439791 57.59417634 40.26720091 56.6875 43 C56.37876953 43.93457031 56.07003906 44.86914062 55.75195312 45.83203125 C53.94609312 51.26862032 52.04516533 56.64941273 50 62 C49.49869465 63.34456612 48.99871021 64.68962541 48.5 66.03515625 C48 67.37760417 47.5 68.72005208 47 70.0625 C46.7525 70.73087891 46.505 71.39925781 46.25 72.08789062 C44.6219 76.45068984 42.86451713 80.7326974 41 85 C36.38 85 31.76 85 27 85 C23.47440331 74.36206726 19.95358837 63.72256529 16.43891144 53.0810194 C14.80684991 48.14006034 13.1731308 43.1996622 11.53564453 38.26049805 C9.95617604 33.49613069 8.38103443 28.73035321 6.80891418 23.96355629 C6.20761292 22.14293571 5.6047402 20.32283337 5.00028992 18.50325584 C4.1555633 15.95948776 3.31638482 13.41395349 2.47851562 10.86791992 C2.22604568 10.11194519 1.97357574 9.35597046 1.7134552 8.5770874 C0.73862074 5.59878305 0 3.15578877 0 0 Z " fill="#FA315D" transform="translate(381,165)"/>
<path d="M0 0 C5.94 0 11.88 0 18 0 C19.155 2.578125 20.31 5.15625 21.5 7.8125 C23.32916839 11.87688216 25.16484057 15.93831991 27 20 C27.31159058 20.69059509 27.62318115 21.38119019 27.94421387 22.0927124 C30.05474057 26.77012711 32.17112095 31.44483309 34.29370117 36.11679077 C35.01336308 37.70294333 35.73130591 39.289877 36.44750977 40.87759399 C37.4681835 43.13928198 38.49509681 45.3980397 39.5234375 47.65625 C39.82941864 48.33781662 40.13539978 49.01938324 40.45065308 49.72160339 C42.00281097 53.11267324 43.60915404 56.12770847 46 59 C46.33209473 58.28046143 46.66418945 57.56092285 47.00634766 56.81958008 C54.7890625 39.95703125 54.7890625 39.95703125 56.39233398 36.4855957 C57.47232029 34.1440673 58.54992262 31.80143799 59.62524414 29.45776367 C60.14465576 28.32701416 60.66406738 27.19626465 61.19921875 26.03125 C61.66158936 25.02255859 62.12395996 24.01386719 62.6003418 22.97460938 C64.50929001 18.91763658 66.54391363 14.93034861 68.60546875 10.94921875 C70.28658734 7.39391194 71.61912626 3.68232996 73 0 C78.94 0 84.88 0 91 0 C91 28.38 91 56.76 91 86 C85.06 86 79.12 86 73 86 C72.505 65.21 72.505 65.21 72 44 C70.288125 47.8775 68.57625 51.755 66.8125 55.75 C66.28374268 56.94592773 65.75498535 58.14185547 65.21020508 59.37402344 C62.42169035 65.70134912 59.70676407 72.05198661 57.0847168 78.45019531 C56.14000932 80.67088513 55.07925303 82.84149395 54 85 C48.39 85 42.78 85 37 85 C31.06 71.47 25.12 57.94 19 44 C18.67 57.53 18.34 71.06 18 85 C12.06 85 6.12 85 0 85 C0 56.95 0 28.9 0 0 Z " fill="#FC315D" transform="translate(663,165)"/>
<path d="M0 0 C5.61 0 11.22 0 17 0 C17 9.57 17 19.14 17 29 C17.66 29 18.32 29 19 29 C19 28.34 19 27.68 19 27 C26.33673261 22.45512139 32.3928839 20.8938646 41 22 C44.11174352 22.77463488 47.04913858 23.7481194 50 25 C50 25.66 50 26.32 50 27 C50.58910156 27.10570312 51.17820312 27.21140625 51.78515625 27.3203125 C56.71802989 28.83410441 59.82385101 33.20637278 62.5625 37.3828125 C67.4476179 46.68119032 67.52546152 57.93718162 64.81640625 68.015625 C61.92885137 75.03417944 55.77299501 81.7075296 48.91796875 85 C40.37053731 88.29845221 32.37318846 89.5390397 23.73046875 85.93359375 C21.37360203 84.66205617 19.69896144 83.05291174 18 81 C17.67 82.98 17.34 84.96 17 87 C11.39 87 5.78 87 0 87 C0 58.29 0 29.58 0 0 Z " fill="#FB315C" transform="translate(585,164)"/>
<path d="M0 0 C5.94 0 11.88 0 18 0 C18.67160156 1.80855469 19.34320312 3.61710938 20.03515625 5.48046875 C22.86586749 12.83594622 26.09815795 19.96844192 29.41717529 27.11416626 C31.1860615 30.92530815 32.93926673 34.74363588 34.69140625 38.5625 C35.22731384 39.73036797 35.22731384 39.73036797 35.77404785 40.92182922 C39.55591851 49.18296361 43.23109197 57.48975726 46.875 65.8125 C47.32261185 66.83085434 47.32261185 66.83085434 47.77926636 67.86978149 C48.62414419 69.79337287 49.46515348 71.71860254 50.3046875 73.64453125 C50.77890137 74.73096924 51.25311523 75.81740723 51.74169922 76.93676758 C52.96153761 79.9063664 53.98478954 82.95436861 55 86 C48.73 86 42.46 86 36 86 C30 73.375 30 73.375 30 70 C16.14 70 2.28 70 -12 70 C-12.33 71.65 -12.66 73.3 -13 75 C-14.53666361 78.73333685 -16.28214923 82.34406118 -18 86 C-24.27 86 -30.54 86 -37 86 C-33.62529299 75.87587897 -33.62529299 75.87587897 -32.0456543 72.35522461 C-31.69019028 71.55719421 -31.33472626 70.75916382 -30.9684906 69.93695068 C-30.59088089 69.1005304 -30.21327118 68.26411011 -29.82421875 67.40234375 C-29.22076378 66.05139618 -29.22076378 66.05139618 -28.6051178 64.67315674 C-27.30292968 61.75960668 -25.99515903 58.84859808 -24.6875 55.9375 C-22.88226189 51.90186881 -21.07993661 47.86493829 -19.27734375 43.828125 C-18.82908234 42.82537033 -18.38082092 41.82261566 -17.91897583 40.78947449 C-13.81729793 31.60854885 -9.7712533 22.40388939 -5.75 13.1875 C-5.45032318 12.50106415 -5.15064636 11.8146283 -4.84188843 11.10739136 C-3.22601865 7.40575311 -1.61258552 3.70307303 0 0 Z " fill="#FA315C" transform="translate(801,165)"/>
<path d="M0 0 C6.55977518 5.19586153 9.1503889 10.38652399 11.5546875 18.375 C11.5546875 23.325 11.5546875 28.275 11.5546875 33.375 C-3.6253125 33.375 -18.8053125 33.375 -34.4453125 33.375 C-30.03845438 40.26937185 -30.03845438 40.26937185 -23.4453125 44.375 C-16.00343019 45.46006124 -10.27418012 44.17971349 -3.4453125 41.375 C0.18688437 41.7181997 1.8525988 43.34394465 4.3046875 45.9375 C5.22507812 46.89849609 5.22507812 46.89849609 6.1640625 47.87890625 C6.62296875 48.37261719 7.081875 48.86632812 7.5546875 49.375 C5.43970874 54.57939801 1.4951658 56.17664252 -3.4453125 58.375 C-13.10795801 61.76387747 -23.47899799 61.5138359 -32.91015625 57.6328125 C-41.39461896 53.42326398 -47.81839511 47.08074136 -51.3203125 38.1875 C-53.99305611 28.81679652 -53.19014595 19.87418648 -49.046875 11.1015625 C-43.81963908 2.20251207 -36.180127 -2.24035363 -26.46875 -5.234375 C-16.70733458 -7.11881813 -8.21142534 -5.45679383 0 0 Z " fill="#F9315C" transform="translate(562.4453125,191.625)"/>
<path d="M0 0 C7.80342081 5.63580392 11.32612006 12.8806003 13.1875 22.1875 C13.1875 26.1475 13.1875 30.1075 13.1875 34.1875 C-1.9925 34.1875 -17.1725 34.1875 -32.8125 34.1875 C-28.75784751 41.66147708 -28.75784751 41.66147708 -21.8125 45.1875 C-14.00201122 46.15692597 -7.13404651 44.90878277 0.1875 42.1875 C1.55627116 43.42149063 2.90719166 44.67530623 4.25 45.9375 C5.00410156 46.63359375 5.75820313 47.3296875 6.53515625 48.046875 C8.1875 50.1875 8.1875 50.1875 8.21875 52.2890625 C5.64119773 57.0341019 -1.71993815 59.02541848 -6.6875 60.5 C-17.35703609 62.70675144 -27.69582208 61.28283539 -37.16796875 55.83203125 C-44.46074647 50.7284551 -49.16702676 43.9844531 -50.8125 35.1875 C-51.79183832 24.30729009 -50.73889923 16.02100743 -44.625 6.9375 C-32.58860068 -4.83142378 -14.88339147 -9.47567804 0 0 Z " fill="#FB315C" transform="translate(991.8125,190.8125)"/>
<path d="M0 0 C5.61 0 11.22 0 17 0 C23.26187392 13.21951161 29.14382782 26.59650893 35 40 C35.68835938 38.62328125 35.68835938 38.62328125 36.390625 37.21875 C36.68598145 36.62827881 36.98133789 36.03780762 37.28564453 35.42944336 C37.93323443 34.13377172 38.58003335 32.83770447 39.22607422 31.54125977 C40.5266743 28.93317985 41.82819369 26.32825246 43.1796875 23.74609375 C45.82728542 18.68064814 47.79379862 13.41697756 49.75390625 8.05078125 C50.37072266 6.54064453 50.37072266 6.54064453 51 5 C51.35578125 4.05125 51.7115625 3.1025 52.078125 2.125 C54 0 54 0 55.92553711 -0.38793945 C58.3658172 -0.49417344 60.74814788 -0.43512791 63.1875 -0.3125 C64.4549707 -0.27866211 64.4549707 -0.27866211 65.74804688 -0.24414062 C67.83278798 -0.18524963 69.91661804 -0.09556798 72 0 C71.443125 1.051875 70.88625 2.10375 70.3125 3.1875 C68.54888029 6.70627712 67.09998246 10.26677738 65.72265625 13.953125 C62.66499497 22.05855826 59.05772675 29.88503299 55.4375 37.75 C54.77111419 39.20425751 54.10509694 40.65868396 53.43945312 42.11328125 C52.47960242 44.21078915 51.51956191 46.30820479 50.55795288 48.40490723 C48.33508643 53.2541141 46.15073698 58.11842905 44 63 C38.39 63 32.78 63 27 63 C22.72462402 53.39247381 18.45182634 43.78381738 14.18515015 34.17242432 C12.2284908 29.76495948 10.26954738 25.35852876 8.30732727 20.95353699 C7.03522889 18.0953504 5.76790902 15.23504693 4.5 12.375 C3.80716919 10.82341187 3.80716919 10.82341187 3.1003418 9.24047852 C2.6856665 8.30260498 2.27099121 7.36473145 1.84375 6.3984375 C1.30524414 5.18679932 1.30524414 5.18679932 0.75585938 3.95068359 C0 2 0 2 0 0 Z " fill="#FA315D" transform="translate(862,187)"/>
<path d="M0 0 C3.77702297 2.63513231 6.60374735 5.7074947 8.6875 9.875 C9.46140656 16.70060214 8.7417139 22.23038708 4.6875 27.875 C-0.35346813 32.55589898 -3.73607441 33.28946449 -10.48046875 33.21875 C-14.81420704 32.69272384 -17.3626834 31.01810943 -20.3125 27.875 C-23.97883232 23.14424862 -23.92648827 17.87117014 -23.80078125 12.08203125 C-23.06520027 7.25073536 -20.96489661 4.06665851 -17.3125 0.875 C-12.02854688 -2.43018878 -5.72605901 -1.94469929 0 0 Z " fill="#2E185C" transform="translate(625.3125,203.125)"/>
<path d="M0 0 C0.66 0 1.32 0 2 0 C3.85604731 4.23382315 5.70733366 8.46968307 7.55419922 12.70751953 C8.18342077 14.14949913 8.81394967 15.59090897 9.44580078 17.03173828 C10.35271331 19.10041003 11.25493595 21.17107151 12.15625 23.2421875 C12.44060913 23.88807831 12.72496826 24.53396912 13.01794434 25.19943237 C15 29.77225659 15 29.77225659 15 32 C5.76 32 -3.48 32 -13 32 C-9.625 21.875 -9.625 21.875 -7.51953125 17.08984375 C-7.07802734 16.08115234 -6.63652344 15.07246094 -6.18164062 14.03320312 C-5.72982422 13.01162109 -5.27800781 11.99003906 -4.8125 10.9375 C-4.34908203 9.88111328 -3.88566406 8.82472656 -3.40820312 7.73632812 C-2.2756523 5.15598036 -1.13952397 2.57727399 0 0 Z " fill="#32185C" transform="translate(809,189)"/>
<path d="M0 0 C3.94690233 2.14588865 5.74687974 4.41589451 7.8125 8.375 C7.8125 9.035 7.8125 9.695 7.8125 10.375 C-2.0875 10.375 -11.9875 10.375 -22.1875 10.375 C-19.98355665 3.76316995 -19.40768912 3.10370652 -14.1875 -0.625 C-9.11211603 -2.31679466 -4.86785564 -2.18871867 0 0 Z " fill="#3A195C" transform="translate(981.1875,202.625)"/>
<path d="M0 0 C0.7734375 -0.00257813 1.546875 -0.00515625 2.34375 -0.0078125 C4.5 0.125 4.5 0.125 7.5 1.125 C7.5 1.785 7.5 2.445 7.5 3.125 C8.3971875 3.49625 8.3971875 3.49625 9.3125 3.875 C11.81626919 5.30572525 12.98072388 6.6941582 14.5 9.125 C14.5 9.785 14.5 10.445 14.5 11.125 C4.93 11.125 -4.64 11.125 -14.5 11.125 C-12.5759065 6.31476624 -11.27643236 4.44089183 -7.5 1.125 C-4.68772378 0.18757459 -2.91253156 -0.00970844 0 0 Z " fill="#30185C" transform="translate(543.5,200.875)"/>
</svg>
